<svg width="136" height="29" viewBox="0 0 136 29" fill="none" xmlns="http://www.w3.org/2000/svg">
<g clip-path="url(#clip0_2001_2)">
<path fill-rule="evenodd" clip-rule="evenodd" d="M122.04 2.5636C121.549 3.93879 121.06 5.30593 120.569 6.68214H123.546C123.044 5.30774 122.545 3.94292 122.04 2.5636ZM119.412 10.5204H117.278C117.282 10.5037 117.279 10.4897 117.285 10.4814C117.77 9.80974 118.098 9.05698 118.398 8.28998C119.207 6.21133 120.015 4.1326 120.814 2.04963C120.943 1.71293 121.026 1.35676 121.11 1.00481C121.142 0.875691 121.115 0.732589 121.115 0.580382C121.151 0.580382 121.196 0.580382 121.24 0.580382C121.767 0.580382 122.294 0.582847 122.821 0.578147C122.917 0.577264 122.963 0.603118 123.002 0.698536C124.025 3.244 125.05 5.78882 126.081 8.33131C126.385 9.08077 126.72 9.81612 127.157 10.5158H124.716C124.703 10.3712 124.693 10.2227 124.675 10.0755C124.6 9.49412 124.381 8.95558 124.184 8.41062C124.164 8.35577 124.141 8.30205 124.121 8.24727C124.034 8.01007 124.034 8.00996 123.779 8.00996C122.597 8.00996 121.415 8.01117 120.232 8.00785C120.132 8.00752 120.083 8.03372 120.047 8.13534C119.829 8.74808 119.588 9.35351 119.476 9.99909C119.448 10.1671 119.434 10.3378 119.412 10.5204Z" fill="#030E31"/>
<path fill-rule="evenodd" clip-rule="evenodd" d="M128.404 0.586914H130.61C130.576 0.740127 130.526 0.886899 130.514 1.03694C130.474 1.50282 130.422 1.96975 130.42 2.43654C130.41 4.63735 130.415 6.83823 130.415 9.03904C130.415 9.07998 130.419 9.12087 130.421 9.16789C130.455 9.17218 130.483 9.17883 130.511 9.17875C131.198 9.17621 131.887 9.18172 132.576 9.16755C133.272 9.15312 133.949 9.02042 134.599 8.76047C134.626 8.74979 134.654 8.74166 134.692 8.72818C134.61 9.33064 134.529 9.92459 134.447 10.5213H128.417C128.459 10.3022 128.522 10.0884 128.541 9.87078C128.575 9.47974 128.599 9.0864 128.6 8.69398C128.604 6.46804 128.6 4.24214 128.597 2.01618C128.596 1.53441 128.551 1.05722 128.404 0.586914Z" fill="#030E31"/>
<path fill-rule="evenodd" clip-rule="evenodd" d="M109.236 10.5283H107.3C107.343 10.2886 107.4 10.053 107.425 9.81426C107.456 9.52376 107.474 9.23054 107.475 8.93838C107.479 6.62091 107.479 4.30347 107.476 1.98602C107.476 1.92133 107.45 1.84618 107.412 1.79372C107.126 1.39907 106.834 1.00884 106.531 0.600357C106.58 0.59588 106.614 0.590096 106.647 0.590045C107.361 0.589542 108.074 0.591856 108.788 0.58692C108.878 0.586323 108.922 0.628022 108.97 0.688985C110.08 2.11151 111.192 3.53308 112.303 4.95567C112.805 5.59956 113.309 6.24289 113.805 6.89154C113.956 7.08784 114.083 7.30122 114.236 7.52719C114.238 7.48966 114.241 7.47533 114.241 7.46099C114.232 5.74189 114.225 4.0228 114.215 2.30376C114.212 2.01549 114.205 1.72591 114.176 1.43951C114.147 1.15883 114.088 0.881382 114.04 0.597188H115.969C115.932 0.778419 115.881 0.957987 115.862 1.14088C115.827 1.4728 115.79 1.80669 115.79 2.13983C115.783 4.87562 115.785 7.61138 115.785 10.3472C115.785 10.4014 115.785 10.4556 115.785 10.5232C115.746 10.5264 115.711 10.5319 115.676 10.532C115.314 10.5326 114.954 10.5354 114.593 10.529C114.541 10.5282 114.473 10.4963 114.44 10.4556C112.778 8.34304 111.118 6.22885 109.461 4.11164C109.295 3.89982 109.155 3.66808 108.996 3.4356C109.003 3.52634 109.015 3.6103 109.016 3.69439C109.025 4.51825 109.033 5.34215 109.037 6.16605C109.04 6.92733 109.037 7.68873 109.039 8.4501C109.04 9.14367 109.022 9.83919 109.236 10.5283Z" fill="#030E31"/>
<path fill-rule="evenodd" clip-rule="evenodd" d="M96.9186 5.33667C96.9189 5.74827 96.9654 6.1537 97.0711 6.55166C97.4717 8.0598 98.5877 9.05388 100.022 9.21838C101.416 9.37842 102.677 8.67331 103.226 7.37634C103.668 6.33534 103.65 5.2729 103.289 4.21886C102.787 2.7495 101.58 1.86342 100.088 1.84572C99.0348 1.83325 98.174 2.23519 97.5591 3.11106C97.0931 3.77522 96.9208 4.53293 96.9186 5.33667ZM105.451 5.42374C105.416 6.52112 105.167 7.54775 104.557 8.46467C103.863 9.50731 102.892 10.1665 101.693 10.4677C100.33 10.8097 98.985 10.7523 97.6937 10.1598C96.3984 9.5655 95.5724 8.55189 95.2158 7.16788C94.8814 5.86874 94.963 4.58543 95.515 3.35808C96.1482 1.95035 97.2412 1.0617 98.7066 0.649944C99.9134 0.310722 101.128 0.321638 102.315 0.745363C103.96 1.33276 104.943 2.52054 105.302 4.23245C105.384 4.62267 105.403 5.02629 105.451 5.42374Z" fill="#030E31"/>
<path fill-rule="evenodd" clip-rule="evenodd" d="M84.7043 1.90941C84.1611 1.92485 83.6387 1.93048 83.1178 1.95704C82.598 1.9835 82.0954 2.10562 81.5986 2.30129V0.606445H89.6463V2.30034C89.1495 2.1097 88.6415 1.98184 88.115 1.95634C87.5945 1.93118 87.0732 1.925 86.545 1.91032C86.5402 1.97168 86.5348 2.0079 86.5352 2.04411C86.538 4.45745 86.5399 6.87086 86.5476 9.28422C86.5486 9.70265 86.6083 10.116 86.7356 10.5293H84.5178C84.5562 10.3377 84.6062 10.1455 84.6315 9.95009C84.6648 9.69372 84.697 9.43481 84.6977 9.17686C84.7039 6.80111 84.7032 4.42535 84.7043 2.0496C84.7043 2.01298 84.7043 1.9764 84.7043 1.90941Z" fill="#030E31"/>
<path fill-rule="evenodd" clip-rule="evenodd" d="M91.127 0.592285H93.3185C93.2742 0.861993 93.215 1.12702 93.1908 1.39527C93.1593 1.74022 93.1436 2.0877 93.1429 2.43411C93.1388 4.51225 93.1403 6.59038 93.1414 8.66851C93.1418 9.19554 93.1539 9.72202 93.2672 10.2399C93.2873 10.3329 93.3141 10.4245 93.34 10.524H91.1284C91.3731 9.71047 91.323 8.87586 91.3244 8.04635C91.3281 6.11457 91.3263 4.18284 91.3234 2.25102C91.3226 1.69476 91.2996 1.1399 91.127 0.592285Z" fill="#030E31"/>
<path fill-rule="evenodd" clip-rule="evenodd" d="M68.7138 0.602594H70.6459C70.6046 0.817977 70.5435 1.02818 70.5277 1.24185C70.4945 1.68751 70.4692 2.13502 70.4685 2.58179C70.4633 5.17549 70.466 7.76914 70.466 10.3628V10.5307C70.4227 10.5344 70.391 10.5395 70.3595 10.5395C69.9984 10.5401 69.6377 10.5434 69.2771 10.5363C69.2215 10.5352 69.149 10.5001 69.1146 10.4566C67.9361 8.96053 66.7607 7.4616 65.585 5.96304C65.1015 5.34657 64.6149 4.7325 64.1361 4.11207C63.9769 3.90547 63.8383 3.68244 63.6843 3.45836C63.6825 3.47411 63.6792 3.48748 63.6796 3.50077C63.6898 4.04002 63.707 4.57922 63.7103 5.11849C63.7198 6.53655 63.714 7.95477 63.7355 9.37261C63.7414 9.75691 63.8237 10.1401 63.872 10.53H61.983C62.0265 10.2701 62.0865 10.0092 62.1107 9.74501C62.1425 9.3958 62.1597 9.04399 62.16 8.6933C62.1644 6.46356 62.163 4.2339 62.1593 2.00414C62.1593 1.93589 62.1311 1.85687 62.0909 1.80129C61.8224 1.42963 61.5473 1.06299 61.2744 0.694491C61.2554 0.66904 61.239 0.641928 61.2119 0.602091C61.2646 0.599475 61.3 0.596256 61.3356 0.596206C62.0448 0.595904 62.7541 0.594244 63.4634 0.599274C63.519 0.599677 63.5936 0.631466 63.6273 0.674372C65.2159 2.70175 66.8028 4.73079 68.3849 6.7633C68.5733 7.00483 68.7353 7.26696 68.908 7.51724C68.908 7.43608 68.908 7.35152 68.908 7.26696C68.9039 5.70243 68.9044 4.13793 68.8933 2.57344C68.8905 2.12657 68.8641 1.67926 68.8301 1.2336C68.814 1.02355 68.7547 0.81687 68.7138 0.602594Z" fill="#030E31"/>
<path fill-rule="evenodd" clip-rule="evenodd" d="M54.8445 1.91455V5.38809C55.1867 5.38809 55.5227 5.40667 55.8558 5.38265C56.1635 5.36049 56.475 5.31934 56.7724 5.23936C57.3282 5.08993 57.6988 4.72898 57.8181 4.14881C57.8624 3.93413 57.8807 3.70909 57.8745 3.48984C57.8518 2.69499 57.449 2.20221 56.6799 2.02929C56.4187 1.97058 56.1496 1.93361 55.8824 1.91908C55.5403 1.90047 55.1965 1.91455 54.8445 1.91455ZM55.0354 10.5335H52.8158C52.8545 10.3406 52.9054 10.1522 52.928 9.9602C52.962 9.66996 52.9954 9.37736 52.996 9.08569C53.0014 6.73039 53.0021 4.37516 52.9963 2.01992C52.9952 1.54354 52.9543 1.068 52.8037 0.600115C52.8481 0.597549 52.8838 0.593726 52.9196 0.593726C53.9522 0.593978 54.9849 0.588495 56.0175 0.597399C56.6665 0.602982 57.306 0.68663 57.9246 0.899448C59.1255 1.31271 59.7766 2.26599 59.739 3.54612C59.7199 4.18956 59.5832 4.79511 59.2283 5.33992C58.917 5.81827 58.5007 6.16951 57.9798 6.3954C57.9502 6.40819 57.9213 6.42241 57.8733 6.44483C58.8413 7.80106 59.6658 9.24637 60.754 10.5373H60.6077C59.9358 10.5373 59.2638 10.5349 58.5918 10.54C58.4883 10.5408 58.4301 10.51 58.3749 10.42C57.6309 9.20866 56.8812 8.00072 56.1367 6.78963C56.0811 6.6992 56.0234 6.6728 55.9177 6.67852C55.6115 6.69514 55.3046 6.69444 54.9978 6.70017C54.9493 6.70113 54.9006 6.70031 54.8369 6.70031C54.8369 6.75902 54.8368 6.80368 54.8369 6.84841C54.8385 7.62229 54.8361 8.39626 54.8438 9.17016C54.8483 9.62639 54.8922 10.0793 55.0354 10.5335Z" fill="#030E31"/>
<path fill-rule="evenodd" clip-rule="evenodd" d="M78.1963 6.69663C77.693 5.32009 77.1932 3.95319 76.6899 2.57754C76.1982 3.95374 75.7099 5.32054 75.2183 6.69663H78.1963ZM81.8078 10.5314H79.3924C79.3284 10.181 79.2937 9.8335 79.1978 9.50415C79.0596 9.02833 78.8749 8.56638 78.715 8.09668C78.6857 8.01064 78.6271 8.02375 78.5669 8.02375C77.5923 8.02346 76.6174 8.02349 75.643 8.02349C75.3734 8.02357 75.1034 8.02098 74.8342 8.02655C74.7961 8.02737 74.7369 8.05936 74.7248 8.09124C74.4837 8.73117 74.2358 9.36957 74.1179 10.048C74.0909 10.2035 74.0821 10.3622 74.0638 10.529H71.9297C71.9312 10.5191 71.9293 10.5051 71.9352 10.4969C72.418 9.8244 72.7477 9.07214 73.0468 8.30547C73.8213 6.32061 74.596 4.33579 75.358 2.34592C75.5197 1.92335 75.6371 1.48227 75.7546 1.04421C75.7908 0.909004 75.76 0.75554 75.76 0.594631H75.8749C76.4101 0.594631 76.9449 0.597045 77.4801 0.592301C77.5733 0.591512 77.6143 0.620485 77.6497 0.708912C78.6894 3.29276 79.7297 5.87635 80.7774 8.45689C81.066 9.16771 81.3894 9.86325 81.8078 10.5314Z" fill="#030E31"/>
<path fill-rule="evenodd" clip-rule="evenodd" d="M26.9115 3.5099C26.9115 3.73127 26.9114 3.98493 26.9115 4.2386C26.9118 5.76594 26.9099 7.29325 26.9138 8.82054C26.9153 9.38931 26.9319 9.95797 27.1042 10.5079C27.1077 10.5189 27.1032 10.5324 27.1021 10.5496H25.1743C25.214 10.3472 25.2666 10.1496 25.2891 9.94852C25.3239 9.63728 25.3571 9.32395 25.358 9.01134C25.3645 6.67226 25.3632 4.33321 25.3612 1.99411C25.3611 1.93728 25.336 1.87159 25.3022 1.82516C25.0298 1.45103 24.7525 1.08063 24.4769 0.70886C24.4578 0.683007 24.4408 0.655392 24.4131 0.614045C24.4635 0.611329 24.4985 0.607858 24.5336 0.607808C25.2428 0.607506 25.952 0.608311 26.6612 0.606448C26.7317 0.606249 26.7825 0.619277 26.8304 0.680743C28.4143 2.7125 30.0019 4.74133 31.5844 6.77426C31.7727 7.01614 31.9348 7.27872 32.1099 7.53314C32.1099 7.45449 32.1102 7.37433 32.1099 7.29416C32.105 5.88829 32.1026 4.48238 32.0939 3.07652C32.0907 2.55385 32.086 2.03049 32.0565 1.50887C32.0397 1.2109 31.9715 0.915893 31.9257 0.61475H33.8539C33.8197 0.766454 33.7677 0.913278 33.7563 1.06327C33.718 1.56722 33.6704 2.07223 33.6688 2.577C33.6601 5.17972 33.6648 7.78242 33.6648 10.3851V10.5541C33.2389 10.5541 32.8288 10.5568 32.4189 10.5498C32.3787 10.5492 32.3321 10.4949 32.3011 10.4555C31.5123 9.4531 30.7251 8.44954 29.9379 7.44581C29.0685 6.33717 28.1974 5.22966 27.3318 4.11791C27.1738 3.91502 27.0382 3.69435 26.9115 3.5099Z" fill="#030E31"/>
<path fill-rule="evenodd" clip-rule="evenodd" d="M50.9345 2.30507C50.7592 2.24749 50.5968 2.18778 50.4308 2.14074C49.9126 1.99397 49.3823 1.93592 48.8452 1.93431C48.2315 1.93245 47.6176 1.93185 47.0038 1.9313C46.9718 1.93124 46.9398 1.93668 46.9018 1.9401V4.54216H50.1139V6.10618C49.0617 5.80307 47.9866 5.86514 46.9054 5.85775V9.1924C46.9317 9.19598 46.9591 9.2029 46.9865 9.2029C47.7413 9.20045 48.4963 9.20605 49.2509 9.19187C49.9394 9.17892 50.608 9.04619 51.2511 8.79248C51.2741 8.78339 51.2973 8.7747 51.321 8.76762C51.3275 8.76562 51.3359 8.77005 51.3599 8.77464C51.2736 9.3632 51.1874 9.95216 51.1006 10.545H44.89C44.9271 10.3789 44.9796 10.2165 44.9973 10.0502C45.0338 9.70567 45.073 9.35908 45.0743 9.0132C45.082 6.79543 45.0805 4.57763 45.0799 2.35985C45.0798 1.77084 45.0659 1.18248 44.8818 0.60791H50.9345V2.30507Z" fill="#030E31"/>
<path fill-rule="evenodd" clip-rule="evenodd" d="M40.2972 1.93416C40.2944 1.97953 40.2908 2.01212 40.2908 2.04472C40.2935 4.45941 40.2941 6.87408 40.3017 9.2888C40.3029 9.68605 40.3524 10.0807 40.47 10.4632C40.4772 10.4865 40.4811 10.5109 40.4883 10.5428H38.2707C38.3097 10.3503 38.359 10.1609 38.384 9.96841C38.4174 9.71195 38.4509 9.45304 38.4516 9.195C38.4578 6.81383 38.457 4.43259 38.4582 2.05136C38.4582 2.01836 38.4582 1.98537 38.4582 1.93557C37.4031 1.92038 36.3561 1.89075 35.3496 2.31297V0.611328H43.4022V2.31382C42.402 1.89176 41.356 1.92179 40.2972 1.93416Z" fill="#030E31"/>
<path fill-rule="evenodd" clip-rule="evenodd" d="M23.0269 10.5436H20.8115C21.0442 9.7636 21.0081 8.96695 21.0092 8.17408C21.0119 6.33359 21.0113 4.49299 21.009 2.65249C21.0085 2.3097 21.0092 1.96565 20.9815 1.62452C20.9539 1.28489 20.8914 0.948136 20.8438 0.60791H23.0226C22.8249 1.2689 22.826 1.94241 22.8258 2.61562C22.8254 4.4436 22.8248 6.2716 22.8263 8.09953C22.8267 8.5094 22.831 8.9193 22.8418 9.3289C22.8527 9.73875 22.9004 10.1443 23.0269 10.5436Z" fill="#030E31"/>
<path fill-rule="evenodd" clip-rule="evenodd" d="M112.176 23.1807C112.23 23.0836 112.277 22.9927 112.33 22.9049C113.224 21.4063 114.121 19.9084 115.015 18.4095C115.204 18.0922 115.404 17.7798 115.477 17.3974H117.609C117.572 17.5787 117.516 17.754 117.502 17.9328C117.463 18.4279 117.419 18.9244 117.418 19.4205C117.411 21.8593 117.415 24.2984 117.421 26.7373C117.422 27.2174 117.467 27.6942 117.601 28.1574C117.608 28.1821 117.608 28.2094 117.611 28.2396H115.558C115.601 28.0205 115.664 27.8093 115.681 27.5941C115.719 27.0986 115.752 26.6012 115.754 26.1044C115.765 24.2546 115.762 22.4049 115.767 20.5551C115.767 20.4005 115.782 20.2459 115.789 20.1258C114.567 22.1609 113.331 24.2204 112.078 26.3078C110.832 24.2474 109.6 22.2142 108.381 20.1998C108.389 20.36 108.407 20.5533 108.407 20.7467C108.41 22.5415 108.403 24.3366 108.416 26.1315C108.421 26.6732 108.473 27.2149 108.516 27.7556C108.528 27.9166 108.582 28.074 108.619 28.2399H106.561C106.6 28.0457 106.652 27.8546 106.675 27.6599C106.711 27.3478 106.749 27.0334 106.75 26.7198C106.756 24.1164 106.756 21.5131 106.752 18.9096C106.751 18.4161 106.707 17.9256 106.565 17.4502C106.561 17.434 106.559 17.4168 106.554 17.3895H106.731C107.356 17.3895 107.983 17.3911 108.609 17.3877C108.692 17.3873 108.742 17.4104 108.788 17.4875C109.771 19.1228 110.757 20.7554 111.74 22.3909C111.892 22.6445 112.027 22.9097 112.176 23.1807Z" fill="#030E31"/>
<path fill-rule="evenodd" clip-rule="evenodd" d="M126.555 26.2834C126.46 26.9509 126.369 27.5902 126.277 28.2365H119.747C119.798 27.87 119.861 27.503 119.895 27.1331C119.923 26.8385 119.923 26.5403 119.923 26.2437C119.923 23.8414 119.921 21.4392 119.918 19.0369C119.918 18.4837 119.879 17.9346 119.713 17.395H126.101V19.2427C125.892 19.1744 125.692 19.0996 125.486 19.0431C124.963 18.8991 124.428 18.8424 123.888 18.8411C123.24 18.8396 122.592 18.8387 121.944 18.838C121.914 18.838 121.884 18.8431 121.845 18.8467V21.6934H125.238V23.3957C124.121 23.0632 122.986 23.1317 121.846 23.1236V26.7644C121.884 26.7682 121.918 26.7746 121.952 26.7745C122.731 26.7721 123.511 26.7775 124.289 26.7639C125.03 26.7511 125.749 26.6067 126.44 26.3254C126.468 26.314 126.496 26.3047 126.555 26.2834Z" fill="#030E31"/>
<path fill-rule="evenodd" clip-rule="evenodd" d="M134.157 19.6816C133.786 19.4733 133.425 19.2428 133.042 19.0608C132.412 18.7613 131.75 18.5972 131.053 18.7167C130.596 18.7948 130.208 18.9958 130.01 19.4666C129.79 19.9882 129.938 20.5817 130.38 20.9901C130.706 21.291 131.096 21.4776 131.484 21.6678C132.03 21.9351 132.586 22.1821 133.116 22.4787C133.697 22.8032 134.172 23.2549 134.451 23.9008C134.677 24.425 134.731 24.976 134.667 25.5351C134.497 27.0149 133.625 27.8479 132.304 28.2166C131.174 28.5317 130.047 28.4353 128.941 28.071C128.614 27.9633 128.306 27.7937 127.992 27.6458C127.953 27.6275 127.908 27.5681 127.908 27.5273C127.902 26.8797 127.904 26.2318 127.904 25.5554C128.002 25.6344 128.08 25.7016 128.162 25.7644C128.97 26.3847 129.864 26.7897 130.867 26.8985C131.226 26.9373 131.585 26.9151 131.928 26.7778C132.532 26.5369 132.77 25.9883 132.723 25.3985C132.672 24.7409 132.289 24.3105 131.773 24.0109C131.266 23.7167 130.734 23.4687 130.21 23.2066C129.768 22.9854 129.332 22.7562 128.947 22.4335C128.223 21.8275 127.918 21.0364 127.996 20.0803C128.092 18.8958 128.721 18.1174 129.731 17.6415C130.467 17.2945 131.246 17.1843 132.047 17.2169C132.729 17.2446 133.393 17.3708 134.024 17.655C134.126 17.7013 134.166 17.7567 134.164 17.8771C134.158 18.4433 134.162 19.0097 134.162 19.576C134.162 19.6197 134.157 19.6634 134.157 19.6816Z" fill="#030E31"/>
<path fill-rule="evenodd" clip-rule="evenodd" d="M102.133 17.395H104.465C104.234 18.1968 104.258 19.0153 104.257 19.8311C104.256 21.8308 104.257 23.8304 104.257 25.83C104.258 26.6368 104.237 27.4459 104.467 28.2391H102.149C102.196 27.9662 102.261 27.6956 102.285 27.4211C102.319 27.0171 102.337 26.6103 102.338 26.2048C102.343 23.9403 102.341 21.6759 102.34 19.4115C102.34 18.8314 102.329 18.2518 102.206 17.6821C102.186 17.5893 102.159 17.4981 102.133 17.395Z" fill="#030E31"/>
<path fill-rule="evenodd" clip-rule="evenodd" d="M97.4946 28.2463H95.1464C95.1835 28.0678 95.2382 27.8973 95.2518 27.7232C95.292 27.2053 95.3398 26.6862 95.3422 26.1673C95.3514 23.7791 95.346 21.3907 95.346 19.0025V18.8503C94.2308 18.834 93.1249 18.8014 92.0605 19.2641V17.4072H100.559V19.2599C99.5049 18.8033 98.3998 18.8338 97.2892 18.8496C97.2853 18.8884 97.2792 18.9191 97.2792 18.9497C97.2803 21.5023 97.2788 24.055 97.2853 26.6076C97.2865 27.1551 97.3216 27.7017 97.4946 28.2463Z" fill="#030E31"/>
<path fill-rule="evenodd" clip-rule="evenodd" d="M71.3787 26.2899C71.2861 26.9497 71.1957 27.5931 71.1046 28.2428H64.541C64.7793 27.42 64.7492 26.5781 64.7495 25.7395C64.7507 23.5337 64.7511 21.3278 64.746 19.1219C64.7449 18.5464 64.7129 17.9723 64.541 17.4058H70.9246V19.2488C70.7169 19.1804 70.5199 19.1067 70.3184 19.0511C69.7951 18.9068 69.2606 18.849 68.72 18.8478C68.0674 18.8463 67.4152 18.8453 66.7626 18.8444C66.7367 18.8444 66.7108 18.8484 66.6761 18.8512V21.6966H70.0546V23.3988C68.9471 23.0702 67.816 23.1376 66.6784 23.1295V26.7675C66.7024 26.7713 66.7309 26.7801 66.7598 26.7799C67.5612 26.7773 68.3625 26.7837 69.1638 26.7675C69.8858 26.7528 70.5875 26.6075 71.2621 26.3321C71.2938 26.3191 71.3266 26.3087 71.3787 26.2899Z" fill="#030E31"/>
<path fill-rule="evenodd" clip-rule="evenodd" d="M80.7036 25.5981C81.0615 25.8309 81.4045 26.085 81.7736 26.288C82.498 26.6866 83.2665 26.9393 84.0983 26.9046C84.5296 26.8865 84.932 26.772 85.2305 26.4174C85.6507 25.9183 85.6232 25.0706 85.1764 24.5269C84.849 24.1282 84.4142 23.8929 83.9728 23.6673C83.3607 23.3546 82.7379 23.0627 82.1427 22.7184C81.6006 22.4047 81.1677 21.9552 80.9499 21.3296C80.5333 20.1336 80.8418 18.5964 82.2119 17.8045C82.9997 17.3494 83.8534 17.1937 84.7413 17.213C85.4638 17.2286 86.167 17.3547 86.8346 17.6613C86.9289 17.7046 86.9636 17.7552 86.9625 17.8643C86.9574 18.4759 86.9601 19.0875 86.9601 19.7242C86.9138 19.6927 86.8833 19.6733 86.8543 19.6521C86.1789 19.1569 85.446 18.8072 84.6196 18.7012C84.2605 18.6552 83.9045 18.6731 83.5553 18.7909C82.5668 19.1243 82.5058 20.2796 83.0664 20.877C83.3093 21.1357 83.5966 21.3255 83.9064 21.4779C84.3844 21.7134 84.8764 21.9195 85.3471 22.1691C85.7198 22.3666 86.0916 22.5802 86.4257 22.84C87.1691 23.4182 87.5008 24.218 87.4845 25.1815C87.4598 26.6786 86.6416 27.7701 85.2012 28.1896C84.0373 28.5285 82.8776 28.4429 81.7365 28.0687C81.4095 27.9616 81.1009 27.7922 80.7881 27.6419C80.7464 27.6219 80.7047 27.5467 80.7043 27.4965C80.6985 26.8755 80.7004 26.2544 80.7009 25.6333C80.7009 25.6159 80.7036 25.5981 80.7036 25.5981Z" fill="#030E31"/>
<path fill-rule="evenodd" clip-rule="evenodd" d="M72.7403 25.5743C72.9446 25.7253 73.1335 25.8787 73.3346 26.0119C74.0529 26.4879 74.8279 26.8147 75.681 26.8924C75.9644 26.9182 76.2621 26.9019 76.5405 26.8399C77.2832 26.674 77.6697 26.0315 77.5333 25.2486C77.4627 24.8428 77.2538 24.5265 76.9548 24.2678C76.5529 23.9195 76.0756 23.7109 75.6115 23.4764C75.1241 23.23 74.6321 22.9901 74.1607 22.7134C73.7088 22.448 73.3343 22.0812 73.0914 21.5922C72.5585 20.52 72.7365 18.8968 73.9309 18.0126C74.4475 17.6301 75.0256 17.4115 75.6458 17.3021C76.685 17.1187 77.7021 17.2043 78.6922 17.5891C78.9942 17.7065 78.9923 17.7125 78.9923 18.0513V19.7283C78.9371 19.6899 78.8988 19.664 78.8614 19.6367C78.1918 19.1494 77.465 18.8062 76.6479 18.7017C76.2888 18.6559 75.9327 18.6737 75.5837 18.792C74.5962 19.1269 74.5398 20.2744 75.0878 20.8699C75.3253 21.1277 75.6088 21.3164 75.9142 21.4674C76.3996 21.7076 76.8927 21.9315 77.3808 22.1662C77.8234 22.3789 78.2443 22.6293 78.6123 22.9672C79.1499 23.4614 79.4476 24.0861 79.5044 24.8278C79.5708 25.6923 79.3943 26.4891 78.8409 27.1638C78.386 27.7179 77.7959 28.0432 77.1291 28.2199C76.0594 28.5035 74.9924 28.4427 73.9413 28.1235C73.5705 28.0108 73.2199 27.8267 72.86 27.6748C72.7638 27.6343 72.7303 27.5657 72.7315 27.4522C72.738 26.8723 72.7342 26.2923 72.7345 25.7122C72.7345 25.6687 72.738 25.625 72.7403 25.5743Z" fill="#030E31"/>
<path fill-rule="evenodd" clip-rule="evenodd" d="M60.4013 17.4016H62.4468C62.197 18.2497 62.2372 19.1146 62.2367 19.9752C62.2348 22.673 62.2359 25.3707 62.2359 28.0685V28.2375C62.1866 28.2406 62.1483 28.2448 62.1101 28.2449C61.8081 28.2455 61.5046 28.2273 61.2042 28.251C60.9651 28.2699 60.8211 28.1809 60.674 27.9858C58.9864 25.7473 57.2877 23.5179 55.5967 21.2825C55.4291 21.0613 55.29 20.8169 55.138 20.5833C55.119 20.5545 55.0997 20.5261 55.1052 20.5031C55.1079 21.8622 55.1082 23.2212 55.1143 24.5803C55.1183 25.4427 55.1183 26.3056 55.1468 27.1673C55.1588 27.5236 55.241 27.8773 55.292 28.2371H53.2762C53.3203 28.0075 53.3844 27.7827 53.4025 27.5538C53.4396 27.0905 53.4701 26.625 53.4713 26.1605C53.4778 23.7549 53.4751 21.3493 53.4708 18.9437C53.4708 18.8606 53.438 18.7643 53.391 18.6967C53.0925 18.2691 52.7859 17.8479 52.4688 17.406C52.5217 17.4011 52.5572 17.3947 52.5927 17.3946C53.3415 17.3941 54.0899 17.3962 54.8387 17.3916C54.9341 17.3911 54.9881 17.4282 55.0441 17.5019C56.4563 19.3737 57.8751 21.2406 59.2826 23.1165C59.7244 23.705 60.1371 24.317 60.5631 24.9179C60.57 24.9273 60.5812 24.9331 60.6044 24.9519C60.6044 24.8895 60.6044 24.8418 60.6041 24.794C60.5967 23.192 60.5905 21.5899 60.5805 19.988C60.577 19.4633 60.5782 18.9376 60.5469 18.4145C60.5268 18.076 60.4519 17.7411 60.4013 17.4016Z" fill="#030E31"/>
<path fill-rule="evenodd" clip-rule="evenodd" d="M36.5881 17.4058H38.5957C38.5494 17.6765 38.4841 17.9419 38.4621 18.2112C38.4281 18.6336 38.41 19.0585 38.4081 19.4824C38.4015 21.0163 38.4108 22.5503 38.4018 24.0842C38.3976 24.7722 38.2933 25.4468 38.0485 26.0905C37.635 27.1777 36.8857 27.8914 35.8053 28.1936C34.6765 28.5092 33.5428 28.496 32.4337 28.0909C31.3614 27.6994 30.7299 26.8738 30.4222 25.7575C30.2543 25.1486 30.1878 24.5234 30.1858 23.892C30.1805 22.317 30.1847 20.7419 30.1801 19.1669C30.1781 18.5777 30.1484 17.9903 29.9746 17.4108H32.287C32.2414 17.6858 32.1796 17.9608 32.1542 18.2395C32.1209 18.6023 32.1039 18.9681 32.1024 19.3326C32.0974 20.8026 32.0974 22.2728 32.1031 23.7427C32.1051 24.2455 32.1514 24.7447 32.2843 25.2319C32.5465 26.1953 33.2123 26.7581 34.1703 26.8358C34.5402 26.8659 34.9063 26.8598 35.2658 26.7654C35.9609 26.5829 36.383 26.1055 36.5938 25.4049C36.758 24.8581 36.7927 24.2928 36.7958 23.7272C36.8039 22.207 36.8016 20.6867 36.7954 19.1664C36.7931 18.5779 36.7646 17.99 36.5881 17.4058Z" fill="#030E31"/>
<path fill-rule="evenodd" clip-rule="evenodd" d="M40.2915 25.5488C40.7514 25.956 41.2337 26.2565 41.7562 26.4862C42.3744 26.7581 43.0136 26.9382 43.6916 26.9036C44.1272 26.8814 44.5343 26.7666 44.8293 26.4007C45.2301 25.9046 45.2058 25.0951 44.783 24.5515C44.5026 24.1914 44.1291 23.9613 43.7399 23.7613C43.2773 23.5237 42.805 23.3068 42.3393 23.0758C41.9393 22.8773 41.5589 22.6444 41.2233 22.3383C40.6286 21.7959 40.3521 21.1084 40.3707 20.2902C40.3993 19.016 41.0237 18.1607 42.1103 17.6454C42.8452 17.2969 43.6252 17.1864 44.4265 17.2187C45.1178 17.2467 45.7889 17.3735 46.4268 17.6663C46.5215 17.7096 46.5535 17.7611 46.5527 17.8696C46.547 18.4809 46.55 19.0924 46.55 19.7327C46.4998 19.6966 46.4662 19.6729 46.433 19.6485C45.7615 19.1567 45.032 18.8099 44.2103 18.7037C43.8515 18.6572 43.4955 18.6748 43.146 18.7917C42.1494 19.1254 42.0964 20.2828 42.6506 20.8763C42.8892 21.1321 43.1731 21.3206 43.4781 21.4713C43.9639 21.7112 44.457 21.9341 44.9448 22.1692C45.3869 22.3824 45.8078 22.6334 46.1751 22.9721C46.7195 23.4746 47.0142 24.1105 47.0648 24.8618C47.1254 25.7633 46.9211 26.5823 46.3137 27.2589C45.8233 27.8054 45.2039 28.1177 44.5138 28.2612C43.1422 28.5463 41.8184 28.3696 40.548 27.7513C40.3521 27.6561 40.2757 27.5394 40.2849 27.3055C40.3058 26.7815 40.2915 26.2558 40.2915 25.7308V25.5488Z" fill="#030E31"/>
<path fill-rule="evenodd" clip-rule="evenodd" d="M48.6729 17.4058H50.9994C50.9612 17.5794 50.9048 17.7482 50.8905 17.9208C50.8499 18.4062 50.8029 18.8933 50.8017 19.3799C50.7947 21.8124 50.8009 24.2451 50.8052 26.6777C50.8064 27.2032 50.8512 27.7241 51.0114 28.2397H48.6771C48.7134 28.0755 48.7678 27.9146 48.7814 27.7501C48.8241 27.2283 48.8779 26.7052 48.8806 26.1823C48.8913 23.9368 48.8878 21.6912 48.8833 19.4457C48.8821 18.8441 48.8759 18.241 48.7342 17.6511C48.7156 17.5723 48.6952 17.4939 48.6729 17.4058Z" fill="#030E31"/>
<path fill-rule="evenodd" clip-rule="evenodd" d="M22.9412 21.8152C23.1324 21.8152 23.3069 21.8153 23.4814 21.8152C23.9275 21.815 24.3742 21.8129 24.8106 21.6995C25.2323 21.5901 25.5856 21.3818 25.744 20.9284C25.8683 20.5724 25.8834 20.2047 25.7899 19.8392C25.6605 19.332 25.2995 19.084 24.8396 18.9655C24.2221 18.8065 23.5919 18.818 22.9624 18.8313C22.9559 18.8314 22.9493 18.8415 22.9412 18.8485V21.8152ZM22.9416 26.7821C23.4571 26.7821 23.956 26.7952 24.4538 26.7767C24.7137 26.7671 24.9763 26.7226 25.2292 26.6577C25.7559 26.5226 26.1707 26.2255 26.3244 25.6538C26.3904 25.4079 26.4174 25.1414 26.412 24.8855C26.395 24.063 25.9907 23.5605 25.2269 23.3725C24.4812 23.1891 23.7228 23.2399 22.9671 23.2402C22.9597 23.2402 22.9528 23.2486 22.9416 23.2556V26.7821ZM20.8405 28.246C20.8918 27.888 20.9563 27.5438 20.9868 27.1964C21.017 26.8469 21.0224 26.4944 21.0231 26.1431C21.0258 23.9241 21.027 21.705 21.0228 19.4859C21.0216 18.8751 21.0243 18.2623 20.8795 17.663C20.8594 17.5795 20.8374 17.4966 20.8115 17.3957C20.8637 17.3957 20.9058 17.3957 20.9478 17.3957C21.9414 17.3959 22.9354 17.393 23.9294 17.3979C24.6129 17.4012 25.2979 17.4225 25.9583 17.6246C26.2487 17.7134 26.5337 17.8432 26.7974 17.9979C27.2009 18.2345 27.4666 18.6104 27.6165 19.0651C27.8049 19.6371 27.8524 20.2261 27.7265 20.818C27.5678 21.5647 27.1032 22.0421 26.4418 22.332C26.4031 22.349 26.3653 22.3672 26.3271 22.3845C26.5738 22.4731 26.8217 22.5418 27.0531 22.6495C27.8146 23.0041 28.2463 23.6204 28.3444 24.4861C28.4193 25.1494 28.3695 25.7999 28.1181 26.4196C27.798 27.2082 27.2017 27.6778 26.4433 27.9461C25.8061 28.1713 25.1439 28.2382 24.4777 28.2445C23.2826 28.2559 22.087 28.2484 20.8918 28.2487C20.8702 28.2487 20.849 28.2465 20.8405 28.246Z" fill="#030E31"/>
</g>
<path d="M0.811523 14.4087C0.811523 13.3041 1.70695 12.4087 2.81152 12.4087C3.91609 12.4087 4.81152 13.3041 4.81152 14.4087C4.81152 15.5133 3.91609 16.4087 2.81152 16.4087C1.70695 16.4087 0.811523 15.5133 0.811523 14.4087Z" fill="#3A4B7F"/>
<defs>
<clipPath id="clip0_2001_2">
<rect width="114.63" height="28" fill="white" transform="translate(20.8115 0.408691)"/>
</clipPath>
</defs>
</svg>
