<svg width="107" height="27" viewBox="0 0 107 27" fill="none" xmlns="http://www.w3.org/2000/svg">
<g clip-path="url(#clip0_116_44)">
<path fill-rule="evenodd" clip-rule="evenodd" d="M94.5506 2.3168C94.094 3.59377 93.6406 4.86325 93.1848 6.14116H95.949C95.4826 4.86493 95.0195 3.5976 94.5506 2.3168ZM92.1098 9.70523H90.1289C90.1322 9.68971 90.1297 9.67671 90.1354 9.66899C90.5855 9.04532 90.8902 8.34637 91.1681 7.63414C91.9197 5.70397 92.6705 3.77373 93.4123 1.83955C93.5317 1.52689 93.6089 1.19616 93.6869 0.869353C93.7162 0.749456 93.6918 0.616576 93.6918 0.475241C93.7251 0.475241 93.7666 0.475241 93.808 0.475241C94.2971 0.475241 94.7863 0.477529 95.2754 0.473165C95.3648 0.472345 95.4078 0.496353 95.4436 0.584955C96.3934 2.9486 97.3457 5.31165 98.3029 7.67253C98.5848 8.36846 98.896 9.05133 99.3014 9.70101H97.0353C97.0231 9.5667 97.0142 9.42882 96.9971 9.29207C96.9273 8.75233 96.7241 8.25221 96.5413 7.74618C96.5226 7.69524 96.5015 7.64536 96.4828 7.59449C96.4016 7.37423 96.4024 7.37414 96.1651 7.37414C95.0674 7.37414 93.9697 7.37527 92.872 7.37218C92.7785 7.37187 92.733 7.39619 92.6997 7.49056C92.4974 8.05954 92.2731 8.62176 92.17 9.22122C92.1431 9.37722 92.1301 9.53566 92.1098 9.70523Z" fill="#CBD4F1"/>
<path fill-rule="evenodd" clip-rule="evenodd" d="M100.46 0.480957H102.508C102.477 0.623227 102.43 0.759515 102.419 0.898843C102.382 1.33144 102.334 1.76502 102.331 2.19846C102.322 4.24207 102.327 6.28575 102.327 8.32936C102.327 8.36737 102.33 8.40534 102.333 8.44897C102.364 8.45295 102.39 8.45913 102.416 8.45905C103.054 8.45677 103.694 8.46181 104.333 8.44865C104.98 8.43529 105.609 8.31207 106.212 8.07069C106.237 8.06078 106.263 8.05323 106.299 8.04071C106.222 8.60018 106.147 9.1517 106.071 9.70575H100.471C100.511 9.50222 100.569 9.30372 100.587 9.10165C100.618 8.73855 100.641 8.37334 100.642 8.00894C100.645 5.942 100.642 3.8751 100.639 1.80813C100.638 1.36078 100.596 0.917668 100.46 0.480957Z" fill="#CBD4F1"/>
<path fill-rule="evenodd" clip-rule="evenodd" d="M82.6615 9.71225H80.8644C80.9044 9.48962 80.9567 9.27098 80.9805 9.04925C81.0091 8.7795 81.026 8.50715 81.0267 8.23589C81.0308 6.08396 81.0301 3.93205 81.0274 1.78012C81.0274 1.72006 81.0033 1.65027 80.9679 1.60156C80.7023 1.2351 80.4313 0.872746 80.1504 0.49344C80.1959 0.489282 80.2271 0.483911 80.258 0.483864C80.9207 0.483397 81.5831 0.485546 82.2455 0.480963C82.3292 0.480408 82.3706 0.519128 82.4145 0.575737C83.4456 1.89665 84.4783 3.21668 85.5094 4.53766C85.9757 5.13556 86.4438 5.73294 86.9045 6.33525C87.0442 6.51754 87.1628 6.71567 87.3042 6.9255C87.3067 6.89065 87.3091 6.87734 87.3091 6.86403C87.301 5.26773 87.2945 3.67142 87.2847 2.07517C87.2823 1.80749 87.2758 1.5386 87.249 1.27265C87.2221 1.01202 87.1669 0.754391 87.123 0.490497H88.9138C88.8797 0.658783 88.8326 0.825525 88.8147 0.99535C88.7822 1.30357 88.7481 1.61361 88.7472 1.92295C88.7416 4.46333 88.7432 7.00367 88.7432 9.54406C88.7432 9.59444 88.7432 9.64481 88.7432 9.70745C88.7066 9.71054 88.6741 9.71558 88.6416 9.71574C88.3061 9.71623 87.9713 9.71883 87.6365 9.71298C87.5878 9.71209 87.5244 9.68251 87.4943 9.64481C85.9506 7.68307 84.4092 5.7199 82.8711 3.75392C82.7167 3.55723 82.5867 3.34204 82.4388 3.12616C82.4453 3.21043 82.4567 3.28838 82.4575 3.36648C82.4657 4.13149 82.4738 4.89653 82.477 5.66159C82.4803 6.36849 82.477 7.07551 82.4787 7.78248C82.4795 8.42652 82.4632 9.07232 82.6615 9.71225Z" fill="#CBD4F1"/>
<path fill-rule="evenodd" clip-rule="evenodd" d="M71.2242 4.892C71.2245 5.2742 71.2676 5.65067 71.3658 6.02021C71.7378 7.42062 72.774 8.3437 74.1055 8.49641C75.4004 8.64502 76.5709 7.99032 77.0814 6.78599C77.491 5.81934 77.4744 4.83279 77.1395 3.85403C76.6731 2.48963 75.5529 1.66685 74.1667 1.6504C73.1892 1.63882 72.3899 2.01205 71.8189 2.82537C71.3862 3.44208 71.2262 4.14568 71.2242 4.892ZM79.1472 4.97285C79.1143 5.99184 78.8836 6.94515 78.3167 7.79658C77.6724 8.76478 76.7712 9.37692 75.6572 9.65658C74.3923 9.97403 73.1429 9.92081 71.9439 9.37058C70.7411 8.81873 69.9742 7.87757 69.643 6.59242C69.3325 5.38606 69.4083 4.19442 69.9209 3.05474C70.5088 1.74755 71.5237 0.922386 72.8845 0.540043C74.005 0.225051 75.1327 0.235187 76.2346 0.628646C77.7624 1.17409 78.6755 2.27703 79.009 3.86666C79.085 4.229 79.1028 4.60379 79.1472 4.97285Z" fill="#CBD4F1"/>
<path fill-rule="evenodd" clip-rule="evenodd" d="M59.8828 1.70892C59.3784 1.72326 58.8933 1.72849 58.4096 1.75315C57.927 1.77772 57.4603 1.89112 56.999 2.07281V0.499023H64.4717V2.07193C64.0104 1.89491 63.5387 1.77618 63.0499 1.75249C62.5665 1.72914 62.0825 1.7234 61.592 1.70976C61.5876 1.76674 61.5825 1.80037 61.5828 1.83399C61.5855 4.07495 61.5872 6.31598 61.5944 8.55692C61.5954 8.94546 61.6508 9.32936 61.769 9.71303H59.7096C59.7453 9.53517 59.7917 9.35674 59.8152 9.17531C59.8461 8.93717 59.876 8.69675 59.8766 8.45731C59.8824 6.25121 59.8818 4.04515 59.8828 1.83909C59.8828 1.80508 59.8828 1.77113 59.8828 1.70892Z" fill="#CBD4F1"/>
<path fill-rule="evenodd" clip-rule="evenodd" d="M65.8467 0.486328H67.8816C67.8405 0.736771 67.7855 0.982868 67.7631 1.23196C67.7338 1.55227 67.7192 1.87492 67.7186 2.19659C67.7148 4.1263 67.7162 6.05598 67.7172 7.98568C67.7176 8.47502 67.7288 8.96399 67.834 9.44482C67.8527 9.53119 67.8776 9.61618 67.9016 9.70872H65.8481C66.0752 8.95326 66.0288 8.17823 66.0301 7.40796C66.0335 5.61417 66.0318 3.82041 66.0291 2.02658C66.0284 1.51004 66.007 0.994826 65.8467 0.486328Z" fill="#CBD4F1"/>
<path fill-rule="evenodd" clip-rule="evenodd" d="M45.0342 0.495656H46.8283C46.7899 0.695655 46.7332 0.890844 46.7186 1.08925C46.6877 1.50308 46.6642 1.91863 46.6636 2.33348C46.6588 4.74192 46.6612 7.15031 46.6612 9.55879V9.71463C46.6211 9.71804 46.5916 9.72276 46.5624 9.72284C46.2271 9.72333 45.8922 9.72633 45.5573 9.71983C45.5057 9.71878 45.4384 9.68619 45.4065 9.64573C44.3121 8.2566 43.2207 6.86474 42.129 5.47322C41.68 4.90077 41.2282 4.33056 40.7836 3.75445C40.6358 3.56262 40.5071 3.35552 40.3641 3.14744C40.3624 3.16206 40.3593 3.17449 40.3597 3.18681C40.3693 3.68756 40.3852 4.18824 40.3883 4.68899C40.397 6.00576 40.3917 7.32268 40.4117 8.63921C40.4171 8.99606 40.4936 9.35185 40.5384 9.7139H38.7844C38.8247 9.47267 38.8805 9.23038 38.9029 8.98501C38.9325 8.66074 38.9484 8.33409 38.9487 8.00846C38.9528 5.93799 38.9515 3.86758 38.9481 1.7971C38.9481 1.73371 38.9219 1.66034 38.8845 1.60873C38.6353 1.26361 38.3798 0.923164 38.1264 0.58099C38.1087 0.557357 38.0935 0.532181 38.0684 0.495189C38.1173 0.49276 38.1502 0.489771 38.1832 0.489725C38.8417 0.489445 39.5003 0.487903 40.159 0.492574C40.2106 0.492947 40.2799 0.522466 40.3112 0.562307C41.7863 2.44488 43.2598 4.32898 44.7288 6.21632C44.9038 6.44058 45.0542 6.684 45.2145 6.9164C45.2145 6.84104 45.2145 6.76252 45.2145 6.684C45.2108 5.23122 45.2112 3.77847 45.201 2.32572C45.1983 1.91078 45.1738 1.49541 45.1422 1.08159C45.1273 0.886546 45.0723 0.694626 45.0342 0.495656Z" fill="#CBD4F1"/>
<path fill-rule="evenodd" clip-rule="evenodd" d="M32.1567 1.71414V4.93958C32.4745 4.93958 32.7865 4.95682 33.0957 4.93453C33.3815 4.91395 33.6707 4.87574 33.9469 4.80147C34.4629 4.66272 34.8071 4.32754 34.9179 3.78882C34.959 3.58947 34.976 3.3805 34.9702 3.1769C34.9491 2.43885 34.5751 1.98126 33.8609 1.82068C33.6184 1.76618 33.3685 1.73185 33.1204 1.71835C32.8028 1.70106 32.4836 1.71414 32.1567 1.71414ZM32.334 9.71742H30.2729C30.3089 9.53842 30.3561 9.36333 30.3771 9.18515C30.4087 8.91556 30.4397 8.64394 30.4403 8.37306C30.4453 6.18599 30.4459 3.99899 30.4406 1.81199C30.4395 1.36964 30.4016 0.928066 30.2617 0.493598C30.3029 0.491216 30.3361 0.487666 30.3693 0.487666C31.3282 0.4879 32.2871 0.482809 33.2459 0.491076C33.8485 0.496261 34.4423 0.573934 35.0167 0.771551C36.1318 1.15529 36.7364 2.04049 36.7015 3.22917C36.6838 3.82666 36.5568 4.38894 36.2273 4.89484C35.9382 5.33902 35.5517 5.66518 35.068 5.87493C35.0405 5.8868 35.0137 5.90001 34.9691 5.92083C35.8679 7.18019 36.6336 8.52231 37.644 9.72107H37.5082C36.8842 9.72107 36.2602 9.71872 35.6363 9.72351C35.5402 9.72416 35.4861 9.69564 35.4349 9.61212C34.744 8.48729 34.0479 7.36559 33.3566 6.24101C33.3049 6.15704 33.2514 6.13251 33.1532 6.13783C32.8689 6.15327 32.5839 6.15261 32.299 6.15794C32.254 6.15883 32.2088 6.15807 32.1496 6.15807C32.1496 6.21258 32.1495 6.25405 32.1496 6.29559C32.1511 7.0142 32.1489 7.73287 32.156 8.45146C32.1602 8.8751 32.201 9.29565 32.334 9.71742Z" fill="#CBD4F1"/>
<path fill-rule="evenodd" clip-rule="evenodd" d="M53.8403 6.15465C53.373 4.87644 52.9089 3.60717 52.4416 2.32978C51.985 3.60768 51.5316 4.87684 51.0751 6.15465H53.8403ZM57.1938 9.71555H54.9511C54.8916 9.39014 54.8593 9.0675 54.7703 8.76167C54.642 8.3198 54.4704 7.89084 54.322 7.45468C54.2948 7.37479 54.2404 7.38697 54.1844 7.38697C53.2795 7.3867 52.3743 7.38673 51.4695 7.38673C51.2192 7.3868 50.9685 7.3844 50.7185 7.38958C50.6831 7.39033 50.6281 7.42004 50.6169 7.44965C50.3931 8.04387 50.1628 8.63663 50.0533 9.26672C50.0282 9.4111 50.0201 9.55833 50.0031 9.71327H48.0215C48.0229 9.70409 48.0212 9.69109 48.0266 9.68345C48.4749 9.05897 48.781 8.36048 49.0588 7.64856C49.7779 5.80549 50.4973 3.96244 51.2049 2.1147C51.355 1.72232 51.464 1.31275 51.5731 0.905972C51.6067 0.780425 51.5781 0.637922 51.5781 0.488506H51.6848C52.1817 0.488506 52.6784 0.490748 53.1753 0.486343C53.2619 0.485611 53.2999 0.512513 53.3328 0.594624C54.2982 2.99391 55.2642 5.39296 56.237 7.78917C56.505 8.44918 56.8053 9.09512 57.1938 9.71555Z" fill="#CBD4F1"/>
<path fill-rule="evenodd" clip-rule="evenodd" d="M6.21929 3.19509C6.21929 3.40065 6.21923 3.63619 6.21929 3.87174C6.2196 5.28999 6.2178 6.70819 6.22146 8.1264C6.22286 8.65458 6.23825 9.18254 6.39827 9.6932C6.40146 9.70344 6.39732 9.71603 6.39629 9.73188H4.60628C4.64314 9.54403 4.69195 9.36048 4.7128 9.17377C4.74514 8.88484 4.77602 8.59381 4.77686 8.30357C4.78281 6.13157 4.78166 3.95959 4.77979 1.78758C4.77971 1.7348 4.75639 1.6738 4.72497 1.63069C4.47208 1.28328 4.21454 0.939334 3.95871 0.594123C3.9409 0.570115 3.92517 0.544473 3.89941 0.50608C3.94622 0.503558 3.97872 0.500335 4.01129 0.500289C4.66984 0.500009 5.32838 0.500756 5.98693 0.499026C6.05238 0.498841 6.0995 0.510938 6.14399 0.568014C7.61478 2.45465 9.08896 4.33857 10.5584 6.22627C10.7332 6.45089 10.8837 6.69471 11.0463 6.93095C11.0463 6.85792 11.0466 6.78348 11.0463 6.70905C11.0418 5.40359 11.0395 4.09811 11.0314 2.79266C11.0284 2.30733 11.0241 1.82134 10.9968 1.337C10.9812 1.06031 10.9178 0.786368 10.8753 0.506735H12.6657C12.634 0.647602 12.5856 0.783939 12.5751 0.923218C12.5395 1.39117 12.4954 1.86012 12.4938 2.32881C12.4858 4.74564 12.4901 7.16243 12.4901 9.57921V9.73618C12.0946 9.73618 11.7139 9.7387 11.3332 9.7322C11.2959 9.73155 11.2526 9.68118 11.2239 9.64453C10.4914 8.71381 9.76042 7.7819 9.02948 6.84986C8.22217 5.8204 7.41339 4.79201 6.60957 3.75968C6.46287 3.57126 6.33696 3.36636 6.21929 3.19509Z" fill="#CBD4F1"/>
<path fill-rule="evenodd" clip-rule="evenodd" d="M28.5255 2.07691C28.3627 2.02343 28.2119 1.96799 28.0578 1.92433C27.5766 1.78803 27.0842 1.73413 26.5855 1.73263C26.0156 1.73091 25.4455 1.73035 24.8756 1.72984C24.8459 1.72979 24.8162 1.73483 24.7809 1.73801V4.15421H27.7635V5.60651C26.7865 5.32506 25.7882 5.38269 24.7842 5.37583V8.47225C24.8087 8.47558 24.8341 8.48208 24.8595 8.482C25.5604 8.4798 26.2615 8.48492 26.9622 8.47176C27.6015 8.45973 28.2223 8.33652 28.8194 8.10093C28.8408 8.09249 28.8623 8.08443 28.8844 8.07784C28.8904 8.07599 28.8983 8.08011 28.9205 8.08437C28.8404 8.63085 28.7603 9.17782 28.6797 9.72821H22.9128C22.9473 9.574 22.996 9.4232 23.0124 9.26882C23.0464 8.94886 23.0828 8.62703 23.0839 8.30589C23.0911 6.24653 23.0897 4.18714 23.0891 2.12778C23.0891 1.58084 23.0762 1.03451 22.9053 0.500977H28.5255V2.07691Z" fill="#CBD4F1"/>
<path fill-rule="evenodd" clip-rule="evenodd" d="M18.6488 1.73225C18.6462 1.77438 18.6428 1.80465 18.6428 1.83491C18.6453 4.07713 18.6459 6.31932 18.653 8.56152C18.6541 8.93048 18.7 9.29683 18.8092 9.65206C18.8159 9.67375 18.8195 9.69634 18.8262 9.72608H16.7671C16.8033 9.54716 16.849 9.37142 16.8723 9.19267C16.9033 8.95444 16.9344 8.71402 16.9351 8.4745C16.9408 6.26337 16.94 4.05223 16.9412 1.84108C16.9412 1.81044 16.9412 1.7798 16.9412 1.73356C15.9615 1.71945 14.9892 1.69195 14.0547 2.084V0.503906H21.532V2.08479C20.6032 1.69288 19.6319 1.72076 18.6488 1.73225Z" fill="#CBD4F1"/>
<path fill-rule="evenodd" clip-rule="evenodd" d="M2.61177 9.72691H0.554688C0.770765 9.00273 0.737187 8.26295 0.738252 7.52671C0.740703 5.81768 0.740148 4.10855 0.73802 2.39952C0.737604 2.08121 0.738206 1.76174 0.712536 1.44497C0.686914 1.1296 0.628825 0.816901 0.584703 0.500977H2.60779C2.42418 1.11475 2.4252 1.74016 2.42507 2.36528C2.42464 4.06269 2.42409 5.76012 2.42553 7.45748C2.42585 7.83807 2.42992 8.21869 2.43995 8.59908C2.45003 8.97957 2.4943 9.35625 2.61177 9.72691Z" fill="#CBD4F1"/>
<path fill-rule="evenodd" clip-rule="evenodd" d="M85.3919 21.4613C85.4415 21.3711 85.4853 21.2866 85.5341 21.2052C86.3645 19.8136 87.1973 18.4227 88.0277 17.0308C88.2032 16.7361 88.3893 16.4461 88.4567 16.091H90.436C90.4019 16.2594 90.3499 16.4221 90.3369 16.5881C90.3011 17.0479 90.2597 17.509 90.2589 17.9696C90.2524 20.2342 90.2565 22.499 90.2621 24.7638C90.263 25.2096 90.3044 25.6523 90.4287 26.0824C90.4352 26.1054 90.4352 26.1306 90.4385 26.1587H88.5315C88.5721 25.9554 88.6306 25.7592 88.646 25.5594C88.681 25.0992 88.7119 24.6374 88.7143 24.176C88.724 22.4585 88.7216 20.7407 88.7257 19.0232C88.7257 18.8796 88.7403 18.736 88.746 18.6244C87.6117 20.5142 86.4644 22.4267 85.3009 24.3649C84.1431 22.4516 82.9998 20.5638 81.868 18.6932C81.8753 18.8419 81.8916 19.0214 81.8916 19.201C81.8948 20.8677 81.8883 22.5346 81.9005 24.2012C81.9046 24.7042 81.9533 25.2073 81.9931 25.7093C82.0045 25.8588 82.0541 26.0049 82.0882 26.159H80.1777C80.2139 25.9787 80.2623 25.8013 80.2834 25.6205C80.3172 25.3306 80.3527 25.0386 80.3534 24.7475C80.3591 22.33 80.3584 19.9126 80.3552 17.4952C80.3544 17.0369 80.3133 16.5815 80.1816 16.14C80.1773 16.125 80.1755 16.109 80.1709 16.0837H80.3351C80.9163 16.0837 81.4979 16.0851 82.0793 16.082C82.1565 16.0816 82.2028 16.103 82.2458 16.1747C83.1583 17.6932 84.074 19.2092 84.9865 20.7278C85.1278 20.9633 85.253 21.2095 85.3919 21.4613Z" fill="#CBD4F1"/>
<path fill-rule="evenodd" clip-rule="evenodd" d="M98.7427 24.3425C98.655 24.9623 98.5705 25.5558 98.4844 26.1561H92.4213C92.4685 25.8156 92.527 25.4749 92.5587 25.1314C92.5847 24.8579 92.5847 24.581 92.5847 24.3055C92.5847 22.0749 92.583 19.8442 92.5798 17.6135C92.5798 17.0999 92.544 16.5899 92.3896 16.0889H98.321V17.8046C98.1277 17.7412 97.9416 17.6718 97.7506 17.6193C97.2648 17.4856 96.7683 17.4328 96.2662 17.4318C95.6649 17.4304 95.0628 17.4294 94.4616 17.4288C94.4339 17.4288 94.4055 17.4336 94.3698 17.437V20.0802H97.5199V21.6609C96.4831 21.3522 95.4293 21.4158 94.3706 21.4083V24.789C94.4055 24.7926 94.4372 24.7985 94.4689 24.7985C95.192 24.7963 95.916 24.8012 96.6391 24.7886C97.3265 24.7767 97.9944 24.6426 98.6363 24.3813C98.6623 24.3708 98.6883 24.3622 98.7427 24.3425Z" fill="#CBD4F1"/>
<path fill-rule="evenodd" clip-rule="evenodd" d="M105.802 18.2122C105.458 18.0187 105.122 17.8047 104.766 17.6357C104.181 17.3576 103.567 17.2051 102.92 17.3162C102.495 17.3887 102.135 17.5753 101.951 18.0125C101.747 18.4969 101.884 19.048 102.295 19.4272C102.598 19.7066 102.959 19.8799 103.32 20.0565C103.827 20.3047 104.343 20.5341 104.836 20.8094C105.375 21.1107 105.816 21.5302 106.075 22.13C106.285 22.6168 106.335 23.1283 106.275 23.6476C106.118 25.0216 105.308 25.7951 104.081 26.1375C103.033 26.4302 101.985 26.3406 100.959 26.0023C100.655 25.9023 100.369 25.7448 100.077 25.6074C100.042 25.5905 99.9994 25.5353 99.9994 25.4975C99.9937 24.896 99.9953 24.2944 99.9953 23.6663C100.086 23.7398 100.159 23.8022 100.235 23.8604C100.986 24.4364 101.815 24.8125 102.747 24.9135C103.08 24.9496 103.414 24.929 103.732 24.8015C104.293 24.5778 104.514 24.0684 104.471 23.5206C104.423 22.91 104.068 22.5104 103.588 22.2322C103.118 21.959 102.624 21.7287 102.137 21.4854C101.727 21.2799 101.321 21.0672 100.964 20.7675C100.292 20.2047 100.009 19.4702 100.081 18.5823C100.17 17.4824 100.754 16.7597 101.692 16.3177C102.375 15.9956 103.099 15.8933 103.843 15.9235C104.476 15.9493 105.092 16.0664 105.678 16.3303C105.773 16.3732 105.811 16.4248 105.809 16.5365C105.803 17.0624 105.806 17.5882 105.806 18.1142C105.806 18.1547 105.802 18.1952 105.802 18.2122Z" fill="#CBD4F1"/>
<path fill-rule="evenodd" clip-rule="evenodd" d="M76.0654 16.0889H78.2312C78.0168 16.8334 78.0386 17.5934 78.0383 18.3509C78.0372 20.2078 78.0376 22.0646 78.0383 23.9214C78.0386 24.6706 78.0196 25.4219 78.233 26.1584H76.0809C76.1243 25.9051 76.1845 25.6538 76.2063 25.3989C76.2383 25.0237 76.2555 24.646 76.2561 24.2694C76.2604 22.1667 76.2586 20.0639 76.2579 17.9613C76.2576 17.4227 76.2472 16.8845 76.1332 16.3554C76.1145 16.2693 76.0898 16.1847 76.0654 16.0889Z" fill="#CBD4F1"/>
<path fill-rule="evenodd" clip-rule="evenodd" d="M71.7597 26.1649H69.5792C69.6137 25.9991 69.6645 25.8408 69.6771 25.6791C69.7144 25.1982 69.7589 24.7162 69.7611 24.2344C69.7696 22.0168 69.7646 19.7991 69.7646 17.5814V17.4401C68.7291 17.425 67.7021 17.3947 66.7139 17.8243V16.1001H74.6053V17.8203C73.6264 17.3964 72.6002 17.4247 71.5689 17.4393C71.5653 17.4755 71.5596 17.5039 71.5596 17.5323C71.5607 19.9027 71.5592 22.273 71.5653 24.6432C71.5664 25.1517 71.5991 25.6592 71.7597 26.1649Z" fill="#CBD4F1"/>
<path fill-rule="evenodd" clip-rule="evenodd" d="M47.5093 24.3483C47.4233 24.961 47.3394 25.5583 47.2548 26.1617H41.1602C41.3814 25.3976 41.3535 24.6159 41.3538 23.8372C41.3548 21.7888 41.3552 19.7405 41.3505 17.6922C41.3495 17.1578 41.3197 16.6247 41.1602 16.0986H47.0876V17.81C46.8948 17.7465 46.7119 17.6781 46.5247 17.6265C46.0388 17.4925 45.5426 17.4389 45.0406 17.4376C44.4346 17.4363 43.829 17.4354 43.223 17.4346C43.199 17.4346 43.175 17.4383 43.1427 17.4409V20.0831H46.2798V21.6637C45.2514 21.3585 44.2012 21.4212 43.1448 21.4135V24.7917C43.1671 24.7953 43.1936 24.8034 43.2205 24.8033C43.9646 24.8008 44.7086 24.8068 45.4526 24.7917C46.1231 24.778 46.7747 24.6431 47.401 24.3874C47.4304 24.3754 47.4609 24.3657 47.5093 24.3483Z" fill="#CBD4F1"/>
<path fill-rule="evenodd" clip-rule="evenodd" d="M56.1672 23.7062C56.4996 23.9222 56.818 24.1582 57.1607 24.3467C57.8334 24.7169 58.547 24.9516 59.3194 24.9192C59.7199 24.9025 60.0935 24.7962 60.3707 24.4668C60.7609 24.0034 60.7353 23.2163 60.3205 22.7113C60.0164 22.3413 59.6127 22.1228 59.2028 21.9131C58.6345 21.6228 58.0561 21.3518 57.5035 21.0322C57.0001 20.7409 56.5982 20.3235 56.3959 19.7425C56.0091 18.6319 56.2956 17.2045 57.5677 16.4692C58.2992 16.0467 59.092 15.9021 59.9164 15.9199C60.5873 15.9344 61.2402 16.0515 61.8602 16.3362C61.9477 16.3764 61.98 16.4234 61.9789 16.5247C61.9742 17.0926 61.9767 17.6605 61.9767 18.2518C61.9337 18.2226 61.9054 18.2045 61.8785 18.1847C61.2514 17.725 60.5708 17.4002 59.8035 17.3019C59.47 17.2591 59.1394 17.2757 58.8152 17.3851C57.8973 17.6947 57.8407 18.7676 58.3612 19.3222C58.5868 19.5624 58.8535 19.7387 59.1412 19.8802C59.5851 20.0989 60.0419 20.2903 60.479 20.522C60.825 20.7054 61.1703 20.9039 61.4805 21.145C62.1707 21.682 62.4788 22.4246 62.4636 23.3193C62.4407 24.7094 61.681 25.723 60.3435 26.1126C59.2627 26.4272 58.1859 26.3477 57.1264 26.0003C56.8227 25.9007 56.5362 25.7434 56.2457 25.604C56.207 25.5854 56.1683 25.5154 56.1678 25.469C56.1625 24.8923 56.1643 24.3155 56.1647 23.7388C56.1647 23.7227 56.1672 23.7062 56.1672 23.7062Z" fill="#CBD4F1"/>
<path fill-rule="evenodd" clip-rule="evenodd" d="M48.7729 23.6837C48.9626 23.8241 49.1379 23.9664 49.3247 24.0902C49.9917 24.5322 50.7113 24.8356 51.5034 24.9078C51.7666 24.9317 52.043 24.9166 52.3016 24.8589C52.9912 24.705 53.35 24.1084 53.2235 23.3814C53.1579 23.0046 52.9639 22.7109 52.6863 22.4706C52.313 22.1473 51.8699 21.9535 51.4389 21.7357C50.9863 21.507 50.5295 21.2842 50.0918 21.0272C49.6722 20.7808 49.3244 20.4402 49.0989 19.9862C48.604 18.9905 48.7693 17.4832 49.8784 16.6623C50.3581 16.3071 50.8949 16.104 51.4708 16.0025C52.4357 15.8322 53.3802 15.9117 54.2996 16.269C54.58 16.3781 54.5782 16.3835 54.5782 16.6982V18.2554C54.5269 18.2197 54.4914 18.1956 54.4566 18.1703C53.8349 17.7178 53.16 17.3992 52.4013 17.3022C52.0678 17.2596 51.7372 17.2761 51.4131 17.3861C50.4962 17.697 50.4438 18.7624 50.9526 19.3155C51.1731 19.5548 51.4364 19.7301 51.72 19.8703C52.1708 20.0934 52.6286 20.3012 53.0818 20.5191C53.4928 20.7167 53.8836 20.9491 54.2253 21.2629C54.7245 21.7219 55.0009 22.3019 55.0537 22.9907C55.1153 23.7934 54.9514 24.5333 54.4376 25.1597C54.0152 25.6744 53.4673 25.9763 52.8481 26.1404C51.8549 26.4038 50.8641 26.3474 49.8881 26.0509C49.5438 25.9463 49.2182 25.7753 48.884 25.6342C48.7947 25.5967 48.7636 25.533 48.7647 25.4276C48.7708 24.8891 48.7672 24.3505 48.7675 23.812C48.7675 23.7714 48.7708 23.7309 48.7729 23.6837Z" fill="#CBD4F1"/>
<path fill-rule="evenodd" clip-rule="evenodd" d="M37.316 16.0947H39.2154C38.9834 16.8823 39.0207 17.6853 39.0203 18.4845C39.0185 20.9895 39.0195 23.4946 39.0195 25.9997V26.1566C38.9737 26.1594 38.9382 26.1634 38.9027 26.1635C38.6223 26.164 38.3404 26.147 38.0615 26.1691C37.8395 26.1867 37.7058 26.104 37.5692 25.923C36.0022 23.8443 34.4248 21.7741 32.8546 19.6984C32.699 19.493 32.5699 19.266 32.4287 19.0491C32.4111 19.0224 32.3932 18.9961 32.3982 18.9746C32.4008 20.2367 32.4011 21.4987 32.4068 22.7606C32.4104 23.5614 32.4104 24.3626 32.4369 25.1628C32.448 25.4936 32.5244 25.8221 32.5717 26.1562H30.7C30.7409 25.943 30.8004 25.7342 30.8172 25.5217C30.8517 25.0915 30.88 24.6594 30.8811 24.2279C30.8872 21.9942 30.8847 19.7604 30.8807 17.5267C30.8807 17.4495 30.8502 17.3601 30.8065 17.2972C30.5294 16.9002 30.2447 16.5092 29.9502 16.0989C29.9994 16.0942 30.0323 16.0882 30.0653 16.0882C30.7606 16.0877 31.4555 16.0897 32.1508 16.0855C32.2394 16.0849 32.2895 16.1193 32.3415 16.1878C33.6528 17.926 34.9703 19.6595 36.2772 21.4014C36.6874 21.9478 37.0707 22.5162 37.4662 23.0741C37.4727 23.0828 37.4831 23.0882 37.5046 23.1057C37.5046 23.0478 37.5046 23.0034 37.5043 22.959C37.4974 21.4714 37.4917 19.9838 37.4824 18.4963C37.4792 18.0091 37.4802 17.5211 37.4512 17.0353C37.4325 16.7209 37.363 16.41 37.316 16.0947Z" fill="#CBD4F1"/>
<path fill-rule="evenodd" clip-rule="evenodd" d="M15.2034 16.0986H17.0676C17.0246 16.35 16.964 16.5965 16.9436 16.8465C16.912 17.2387 16.8952 17.6333 16.8934 18.0269C16.8873 19.4513 16.8959 20.8757 16.8876 22.3001C16.8836 22.9389 16.7869 23.5653 16.5595 24.1631C16.1755 25.1726 15.4799 25.8354 14.4766 26.1159C13.4285 26.409 12.3757 26.3967 11.3459 26.0206C10.3502 25.657 9.76387 24.8904 9.4781 23.8538C9.32218 23.2884 9.26043 22.7078 9.25864 22.1217C9.25369 20.6591 9.25759 19.1965 9.25328 17.734C9.25149 17.187 9.22387 16.6415 9.0625 16.1033H11.2097C11.1673 16.3587 11.11 16.6141 11.0863 16.8728C11.0554 17.2098 11.0397 17.5494 11.0383 17.8879C11.0336 19.2529 11.0336 20.618 11.039 21.983C11.0407 22.4498 11.0838 22.9134 11.2071 23.3658C11.4507 24.2604 12.0688 24.783 12.9584 24.8552C13.3019 24.8831 13.6419 24.8775 13.9756 24.7898C14.6211 24.6203 15.013 24.177 15.2088 23.5264C15.3612 23.0187 15.3935 22.4938 15.3963 21.9686C15.4039 20.557 15.4017 19.1453 15.396 17.7335C15.3938 17.1871 15.3673 16.6412 15.2034 16.0986Z" fill="#CBD4F1"/>
<path fill-rule="evenodd" clip-rule="evenodd" d="M18.6435 23.6599C19.0706 24.038 19.5184 24.3171 20.0036 24.5303C20.5776 24.7829 21.1711 24.9502 21.8007 24.9179C22.2052 24.8973 22.5832 24.7907 22.8571 24.451C23.2293 23.9904 23.2067 23.2385 22.8141 22.7339C22.5538 22.3995 22.207 22.1859 21.8456 22.0001C21.416 21.7795 20.9775 21.5781 20.545 21.3635C20.1736 21.1792 19.8204 20.9629 19.5088 20.6788C18.9566 20.175 18.6998 19.5366 18.717 18.7769C18.7436 17.5937 19.3234 16.7995 20.3324 16.321C21.0148 15.9974 21.739 15.8948 22.4831 15.9249C23.125 15.9508 23.7482 16.0686 24.3405 16.3405C24.4284 16.3806 24.4581 16.4285 24.4574 16.5292C24.452 17.0969 24.4549 17.6646 24.4549 18.2593C24.4082 18.2257 24.377 18.2036 24.3463 18.1811C23.7227 17.7244 23.0453 17.4024 22.2823 17.3037C21.9492 17.2607 21.6186 17.2768 21.2941 17.3855C20.3686 17.6953 20.3195 18.7701 20.8341 19.3212C21.0556 19.5587 21.3192 19.7337 21.6025 19.8736C22.0536 20.0964 22.5114 20.3035 22.9643 20.5217C23.3749 20.7196 23.7657 20.9528 24.1067 21.2673C24.6123 21.7338 24.8859 22.3243 24.9329 23.0219C24.9891 23.8591 24.7995 24.6196 24.2354 25.2479C23.7801 25.7553 23.2049 26.0454 22.5642 26.1786C21.2905 26.4433 20.0614 26.2792 18.8817 25.7051C18.6998 25.6167 18.6288 25.5083 18.6374 25.2912C18.6568 24.8045 18.6435 24.3165 18.6435 23.829V23.6599Z" fill="#CBD4F1"/>
<path fill-rule="evenodd" clip-rule="evenodd" d="M26.4258 16.0986H28.5861C28.5506 16.2598 28.4983 16.4166 28.485 16.577C28.4473 17.0277 28.4036 17.48 28.4026 17.9317C28.3961 20.1905 28.4018 22.4495 28.4058 24.7084C28.4069 25.1963 28.4485 25.68 28.5972 26.1588H26.4297C26.4634 26.0063 26.5139 25.8569 26.5265 25.7041C26.5663 25.2196 26.6162 24.7338 26.6187 24.2483C26.6287 22.1632 26.6254 20.078 26.6212 17.9929C26.6201 17.4342 26.6144 16.8742 26.4827 16.3265C26.4655 16.2533 26.4465 16.1805 26.4258 16.0986Z" fill="#CBD4F1"/>
<path fill-rule="evenodd" clip-rule="evenodd" d="M2.53221 20.1933C2.7097 20.1933 2.87177 20.1934 3.03385 20.1933C3.44799 20.193 3.86287 20.1912 4.26805 20.0859C4.65962 19.9843 4.9877 19.7908 5.13472 19.3698C5.25018 19.0392 5.26415 18.6979 5.17738 18.3585C5.05726 17.8875 4.722 17.6571 4.29494 17.5472C3.72159 17.3995 3.1364 17.4102 2.55193 17.4225C2.54583 17.4226 2.53974 17.4321 2.53221 17.4385V20.1933ZM2.53257 24.8054C3.01127 24.8054 3.47453 24.8175 3.93673 24.8005C4.17805 24.7915 4.42187 24.7501 4.65674 24.6899C5.14583 24.5645 5.53094 24.2885 5.67365 23.7578C5.73496 23.5293 5.76007 23.2819 5.75505 23.0443C5.73927 22.2805 5.36385 21.8139 4.65459 21.6394C3.9622 21.4691 3.25795 21.5162 2.55623 21.5165C2.54941 21.5165 2.54297 21.5242 2.53257 21.5307V24.8054ZM0.581585 26.1648C0.629275 25.8323 0.689155 25.5127 0.717482 25.1901C0.745451 24.8656 0.750469 24.5383 0.751185 24.2121C0.753696 22.1516 0.75478 20.091 0.750835 18.0304C0.74976 17.4633 0.752269 16.8941 0.617805 16.3377C0.599159 16.2602 0.578712 16.1832 0.554688 16.0894C0.603095 16.0894 0.642188 16.0894 0.681273 16.0894C1.60388 16.0897 2.52683 16.087 3.44979 16.0914C4.08446 16.0945 4.72056 16.1144 5.33372 16.302C5.60336 16.3844 5.86799 16.5049 6.1129 16.6487C6.4876 16.8684 6.7343 17.2174 6.87343 17.6396C7.04841 18.1707 7.09252 18.7178 6.97562 19.2673C6.82824 19.9607 6.39689 20.404 5.78265 20.6731C5.7468 20.6889 5.71166 20.7058 5.67617 20.7219C5.90529 20.8043 6.13549 20.8681 6.35028 20.9681C7.05738 21.2973 7.45826 21.8695 7.54933 22.6733C7.6189 23.2894 7.57264 23.8934 7.33921 24.4688C7.04196 25.2011 6.48832 25.6372 5.78409 25.8862C5.19245 26.0954 4.5775 26.1576 3.95896 26.1634C2.84919 26.174 1.73905 26.1669 0.629273 26.1672C0.609193 26.1672 0.589473 26.1652 0.581585 26.1648Z" fill="#CBD4F1"/>
</g>
<defs>
<clipPath id="clip0_116_44">
<rect width="106.44" height="26" fill="white" transform="translate(0.554688 0.317383)"/>
</clipPath>
</defs>
</svg>
