<svg width="223" height="23" viewBox="0 0 223 23" fill="none" xmlns="http://www.w3.org/2000/svg">
<g clip-path="url(#clip0_2001_3)">
<path d="M20.4634 6.79892C21.5637 6.58839 22.409 6.60813 23.1135 7.70026C24.5023 9.8714 26.099 11.9175 27.6086 14.0096C27.8904 13.9044 27.7428 13.6872 27.7428 13.5359C27.7562 11.7793 27.7428 10.0226 27.7495 8.27262C27.7495 7.64763 27.8099 7.01603 27.0249 6.70024H28.8565C27.991 7.09498 28.1386 7.85816 28.1386 8.55556C28.1386 10.8846 28.1386 13.2201 28.1252 15.5491C28.1252 15.7991 28.3332 16.1808 27.9172 16.286C27.5952 16.3649 27.4945 16.0162 27.3469 15.8189C25.4885 13.253 23.6368 10.6872 21.7851 8.12132C21.7448 8.06211 21.6777 8.02263 21.5234 7.87131C21.5234 9.19372 21.5234 10.4043 21.5234 11.6148C21.5234 12.6346 21.5234 13.6609 21.5234 14.6807C21.5234 15.2267 21.6106 15.7334 22.2748 15.9702H20.4365C21.2215 15.7005 21.1678 15.0623 21.1678 14.4373C21.1611 12.2925 21.1678 10.1411 21.1678 7.99632C21.1678 7.47657 21.1678 6.96998 20.4701 6.79234L20.4634 6.79892Z" fill="#030E31"/>
<path d="M37.5298 6.68041C39.4755 6.68041 41.4211 6.68699 43.3735 6.67383C43.7559 6.67383 43.823 6.82515 43.8096 7.14094C43.7895 7.52912 43.8096 7.91728 43.7358 8.41074C42.924 6.61462 41.3406 6.98963 39.9049 6.95673C39.5291 6.95016 39.462 7.10805 39.4688 7.42385C39.4822 8.41727 39.4688 9.41732 39.4755 10.4108C39.4755 10.6148 39.4352 10.8845 39.764 10.8582C40.7904 10.7792 41.9511 11.2069 42.7898 9.97652V12.1148C42.0518 10.9437 40.9582 11.2332 39.9451 11.1937C39.5828 11.1805 39.4956 11.3187 39.5023 11.6477C39.5157 12.8516 39.5023 14.0555 39.509 15.2596C39.509 15.4503 39.4419 15.7398 39.7774 15.7201C40.7368 15.6806 41.7096 15.8714 42.6422 15.503C43.2259 15.2727 43.6418 14.8451 44.1114 14.3977C44.0444 14.8451 43.9706 15.2924 43.9035 15.7398C43.8566 16.0161 43.6619 16.0293 43.4272 16.0293C41.4547 16.0293 39.4821 16.0293 37.4426 15.9701C38.2879 15.6543 38.1806 14.9832 38.1806 14.3517C38.1806 12.2266 38.1806 10.1081 38.1806 7.98307C38.1806 7.47648 38.1806 6.95673 37.4023 6.87778C37.4493 6.81199 37.4896 6.75278 37.5365 6.68699L37.5298 6.68041Z" fill="#030E31"/>
<path d="M87.6568 16.0027C88.3546 15.654 88.2339 15.0356 88.2942 14.4566C88.4754 12.8316 88.0796 11.3776 87.1067 10.0354C86.6639 9.42361 86.3352 8.71961 85.9594 8.06171C85.6643 7.54196 85.3691 7.01563 84.7451 6.67352C85.577 6.67352 86.4023 6.66694 87.2342 6.6801C87.4086 6.6801 87.6636 6.74589 87.3281 6.963C87.0061 7.17353 87.1872 7.45643 87.3013 7.66038C87.9789 8.89726 88.6766 10.1275 89.408 11.417C90.1392 10.2262 90.8236 9.10776 91.5146 7.99592C91.8098 7.51565 91.9843 7.06168 91.1188 6.6801H93.3127C91.528 7.93671 90.7095 9.8578 89.8105 11.6144C89.2872 12.6408 89.6092 14.075 89.7568 15.325C89.7971 15.6803 90.1728 15.7461 90.4009 16.0027H87.6568Z" fill="#030E31"/>
<path d="M138.657 11.2395C138.469 11.1869 138.368 11.2198 138.368 11.4501C138.382 12.6014 138.368 13.7528 138.382 14.9041C138.382 15.4041 138.596 15.7858 139.126 16.0095H136.362C137.127 15.7133 137.087 15.0949 137.08 14.4699C137.073 12.3777 137.08 10.2856 137.08 8.19344C137.08 7.63422 137.167 7.03552 136.45 6.71973H139.099C138.173 7.11447 138.348 7.91712 138.382 8.62768C138.415 9.39084 138.213 10.1672 138.509 10.9172C138.663 10.983 138.763 11.0751 138.65 11.2461L138.657 11.2395Z" fill="#030E31"/>
<path d="M57.3751 14.233C57.3751 14.7923 57.1 15.2923 56.9659 15.8252C56.9256 15.9765 56.9457 16.2331 56.6841 16.2331C56.4359 16.2331 56.4291 16.0095 56.3688 15.8449C55.7314 14.0686 55.094 12.2988 54.4566 10.5224C54.1815 9.75926 53.9065 8.9961 53.6448 8.22634C53.4368 7.6408 53.2423 7.04868 52.5781 6.71973H55.6039C54.4231 7.16053 54.9129 7.83159 55.1141 8.45003C55.7046 10.2659 56.3083 12.0817 56.9256 13.8909C56.9525 13.983 56.9122 14.2594 57.1806 14.108C57.2208 14.0817 57.2074 13.9633 57.2208 13.8843C57.5294 13.8843 57.4221 14.0817 57.3885 14.2396L57.3751 14.233Z" fill="#030E31"/>
<path d="M62.9972 13.8977C62.8161 14.549 62.6416 15.2069 62.4471 15.8517C62.4001 16.003 62.4202 16.2595 62.1451 16.2398C61.9506 16.2267 61.917 16.049 61.8634 15.9043C61.0046 13.549 60.1459 11.1936 59.2871 8.8449C59.1261 8.76594 58.8376 8.79886 58.9315 8.47648C59.0791 7.95014 59.2133 7.41724 59.3676 6.89749C59.4145 6.73959 59.4213 6.48959 59.6829 6.52248C59.8573 6.54221 59.8909 6.73301 59.9446 6.88433C60.2599 7.76593 60.5819 8.65413 60.8973 9.5357C61.4474 11.0555 61.9908 12.5818 62.541 14.1082C62.7758 13.9964 62.7423 13.7463 62.8429 13.5753C63.1381 13.5753 63.0643 13.7463 62.9905 13.9043L62.9972 13.8977Z" fill="#030E31"/>
<path d="M138.656 11.2394C138.609 11.1276 138.562 11.0223 138.516 10.9105C139.616 9.81839 140.723 8.72625 141.816 7.6341C142.044 7.41041 142.359 7.1933 142.071 6.80514C142.554 6.75908 143.064 6.5025 143.5 6.93672C143.037 7.02883 142.668 7.27225 142.34 7.58805C141.527 8.38415 140.716 9.18023 139.898 9.97624C139.676 10.1934 139.508 10.3447 139.796 10.6736C140.991 12.0487 142.152 13.45 143.332 14.8316C143.755 15.3251 144.285 15.6935 145.104 16.0093C143.741 16.233 142.782 15.8843 141.978 15.1409C140.716 13.9698 139.663 12.621 138.663 11.2394H138.656Z" fill="#030E31"/>
<path d="M63.7752 10.5224C63.9832 9.77245 64.1844 9.01581 64.4126 8.27236C64.6138 7.62763 64.8419 6.99603 63.7953 6.75919C64.5199 6.67365 65.1707 6.62103 65.8483 6.79866C65.2311 6.99603 65.0097 7.45 64.8487 7.97632C64.5602 8.95004 64.2448 9.91718 63.9362 10.8843C63.6209 10.8777 63.7349 10.6803 63.7685 10.5224H63.7752Z" fill="#030E31"/>
<path d="M58.9307 8.46973C59.0515 8.59473 59.1656 8.71314 59.2863 8.83815C58.9307 8.86447 59.0381 9.17373 58.9643 9.3645C58.5617 10.3974 58.4074 11.5093 57.8506 12.4896C57.7365 12.3712 57.7499 12.2396 57.8237 12.1014C58.072 10.858 58.5014 9.66056 58.9375 8.46973H58.9307Z" fill="#030E31"/>
<path d="M63.7756 10.5225C63.8292 10.6409 63.8829 10.7659 63.9433 10.8844C63.6816 11.9041 63.4133 12.9172 63.004 13.8976C62.957 13.7857 62.9034 13.6805 62.8564 13.5686C63.1047 12.5357 63.3932 11.5159 63.7823 10.5225H63.7756Z" fill="#030E31"/>
<path d="M57.8175 12.1016L57.8443 12.4898C57.9249 13.1345 57.5626 13.6608 57.3747 14.2332C57.3479 14.1017 57.3613 13.9569 57.207 13.878C57.4083 13.2859 57.6096 12.6938 57.8175 12.1016Z" fill="#030E31"/>
<path d="M143.494 6.93712C143.038 6.67395 142.542 6.88449 142.065 6.80554C142.575 6.47001 143.145 6.73975 143.682 6.6608C143.816 6.64106 143.85 6.7858 143.769 6.86475C143.715 6.92396 143.588 6.91738 143.494 6.93712Z" fill="#030E31"/>
<path fill-rule="evenodd" clip-rule="evenodd" d="M125.655 15.0097C126.333 15.9571 127.238 16.115 128.232 15.9703V15.9637C127.3 15.1478 126.579 14.1802 125.855 13.2066C125.411 12.6101 124.965 12.0113 124.468 11.4438C126.159 10.9307 126.91 10.0885 126.836 8.9175C126.762 7.76612 125.87 6.83847 124.407 6.72005C123.351 6.63332 122.284 6.65427 121.217 6.67522C120.747 6.68448 120.275 6.69373 119.805 6.69373C120.517 7.0039 120.517 7.59329 120.516 8.18145V14.4176L120.517 14.4342C120.523 15.0471 120.53 15.6573 119.805 15.9637H122.563C121.858 15.7466 121.824 15.2269 121.824 14.6742C121.83 14.3499 121.829 14.0245 121.827 13.6989C121.825 13.2647 121.822 12.8302 121.838 12.3978C121.841 12.3213 121.829 12.2322 121.816 12.1413C121.782 11.8962 121.745 11.6378 122.019 11.5754C122.442 11.4767 122.931 11.4241 123.293 11.9307C123.67 12.4571 124.072 12.9636 124.474 13.4702C124.877 13.9768 125.28 14.4834 125.655 15.0097ZM125.367 8.27911C125.092 7.312 124.474 6.95673 123.052 6.95673C122.966 6.95673 122.878 6.9589 122.79 6.96108C122.613 6.96548 122.433 6.96993 122.254 6.95673C121.925 6.93041 121.851 7.06857 121.851 7.36463C121.858 8.5094 121.858 9.66071 121.858 10.8055C121.858 10.8309 121.856 10.8583 121.855 10.8865C121.845 11.0409 121.835 11.218 122.079 11.2068C122.297 11.1977 122.517 11.2078 122.738 11.2179C123.312 11.2442 123.889 11.2707 124.427 10.9568C125.32 10.4437 125.689 9.39097 125.367 8.27911Z" fill="#030E31"/>
<path fill-rule="evenodd" clip-rule="evenodd" d="M111.024 11.3783C111.038 8.49007 109.165 6.60845 106.281 6.59528C103.43 6.58212 101.538 8.43743 101.51 11.273C101.483 14.1744 103.349 16.0824 106.213 16.0956C109.112 16.1087 111.01 14.2468 111.024 11.3783ZM108.93 14.1878C109.447 13.2996 109.608 12.3259 109.601 11.3193C109.601 10.3653 109.447 9.44417 108.978 8.59552C108.401 7.55599 107.542 6.93097 106.287 6.9244C105.04 6.91124 104.113 7.48362 103.576 8.5494C102.624 10.4179 102.63 12.3325 103.603 14.1943C104.141 15.2273 105.053 15.7733 106.267 15.7733C107.482 15.7733 108.34 15.1943 108.93 14.1878Z" fill="#030E31"/>
<path d="M191.962 7.72131C191.966 7.79881 191.972 7.87631 191.972 7.95381L191.988 7.95363C191.963 7.972 191.939 7.99264 191.915 8.01581C191.9 8.96653 191.894 9.92235 191.915 10.8782C192.135 11.019 192.374 11.0017 192.614 10.9844C192.813 10.97 193.014 10.9556 193.202 11.0332C193.444 11.0487 193.656 10.9712 193.832 10.8007L193.88 10.7381L193.929 10.6762C194.164 10.3784 194.399 10.0799 194.467 9.68986C194.742 8.98719 194.566 8.50665 193.832 7.93831L193.837 7.94347C193.814 7.94059 193.792 7.93734 193.769 7.93384L193.832 7.93314C193.307 7.65464 192.746 7.68275 192.183 7.71089C192.109 7.7146 192.035 7.7183 191.962 7.72131Z" fill="#030E31"/>
<path fill-rule="evenodd" clip-rule="evenodd" d="M152.936 16.4101C152.367 18.3838 151.799 20.3575 151.22 22.3725H151.215C151.285 22.3772 151.336 22.3818 151.377 22.3856C151.426 22.3901 151.46 22.3932 151.494 22.3932C172.781 22.3932 194.063 22.3932 215.35 22.4087C215.836 22.4087 215.924 22.1969 216.022 21.8352C217.134 17.7301 218.252 13.6274 219.369 9.52549C219.86 7.72132 220.352 5.91729 220.843 4.11325C221.019 3.46643 221.193 2.81816 221.37 2.16372C221.524 1.58967 221.681 1.01088 221.84 0.424192H221.453C217.932 0.424192 214.412 0.424335 210.892 0.424479C193.291 0.425196 175.693 0.425914 158.092 0.408691C157.575 0.408691 157.487 0.651528 157.379 1.01837C155.902 6.14543 154.421 11.2725 152.939 16.3995L152.936 16.4101ZM162.955 7.46763L162.95 7.46749C163.695 7.29275 164.435 7.16913 165.165 7.5238L165.182 7.52949C165.14 7.58633 165.099 7.64833 165.063 7.70516L165.055 7.70853C164.994 7.78974 164.935 7.86972 164.875 7.9497L164.874 7.95104C164.816 8.02824 164.759 8.10545 164.7 8.18377L164.696 8.19601C164.797 8.77671 165 9.32411 165.205 9.8727C165.242 9.97319 165.279 10.0741 165.316 10.1749C165.476 10.397 165.59 10.6296 165.559 10.9137C165.619 11.1087 165.681 11.3037 165.742 11.4987C165.927 12.0839 166.111 12.6691 166.277 13.2543C166.331 13.447 166.404 13.4034 166.51 13.3404L166.525 13.3317C166.576 12.982 166.629 12.6326 166.68 12.2778C166.624 11.8903 166.722 11.5544 167.021 11.2909C167.029 11.2702 167.035 11.2496 167.042 11.2289C167.049 11.2082 167.055 11.1875 167.063 11.1668C167.063 11.1256 167.057 11.0843 167.052 11.0429L167.055 11.0253C167.005 10.6537 167.092 10.3336 167.377 10.0784C167.384 10.0635 167.391 10.056 167.398 10.056L167.735 9.21836C167.736 9.19777 167.742 9.17553 167.755 9.15188L167.765 9.15699L168.277 7.34349L168.463 7.32799C168.786 8.21417 169.107 9.10034 169.429 9.98655L169.43 9.99024C169.752 10.875 170.073 11.7598 170.395 12.6445C170.481 12.6239 170.566 12.6045 170.651 12.5851C170.736 12.5658 170.822 12.5464 170.907 12.5257C170.991 12.4614 170.996 12.3749 171.001 12.2865C171.003 12.2409 171.006 12.1947 171.02 12.151L171.015 12.1486V11.9057C171.069 11.5984 171.191 11.3187 171.314 11.0356L171.344 10.9652L171.366 10.9137C171.408 10.8672 171.449 10.8207 171.496 10.7742L171.497 10.7749L171.522 10.6771C171.565 10.511 171.607 10.3473 171.645 10.1801C171.658 10.2094 171.671 10.2387 171.684 10.2681C171.678 10.2371 171.67 10.208 171.651 10.1852C171.728 9.93202 171.805 9.68012 171.883 9.4283C171.96 9.1764 172.038 8.9245 172.116 8.67134V8.66615L172.12 8.67818L172.126 8.66615V8.44403L172.123 8.4339L172.12 8.42329L172.11 8.44403C171.977 8.30308 171.989 8.13694 172.003 7.97201C172.008 7.90114 172.014 7.83031 172.007 7.762C172.019 7.77109 172.03 7.78029 172.041 7.78956C172.036 7.78031 172.029 7.77112 172.022 7.762H172.007C171.971 7.70573 171.897 7.70027 171.824 7.69484C171.709 7.68632 171.595 7.67788 171.63 7.47266C171.693 7.40608 171.766 7.39592 171.841 7.3992C172.244 7.27472 172.645 7.26638 173.048 7.40492C173.12 7.39544 173.188 7.40464 173.237 7.47783V7.48062L173.242 7.483H173.237V7.66383L173.231 7.66994C173.118 7.85039 172.993 8.00973 172.751 7.855L172.753 7.85234C172.431 8.09509 172.384 8.44529 172.369 8.81088C172.351 8.89189 172.314 8.94823 172.24 8.96543C172.333 9.20437 172.238 9.40433 172.144 9.60477C172.095 9.71013 172.045 9.81558 172.022 9.92683C172.012 9.96816 172.002 10.0096 171.986 10.0509C171.983 10.0806 171.981 10.111 171.979 10.1413C171.97 10.2742 171.963 10.4043 171.79 10.4591C171.775 10.4539 171.762 10.4475 171.751 10.4402C171.732 10.5254 171.711 10.6106 171.69 10.6962V10.6978C171.672 10.7711 171.654 10.846 171.636 10.9201C171.651 10.949 171.665 10.9798 171.677 11.0119C171.681 11.0635 171.677 11.11 171.651 11.1566C171.645 11.1772 171.639 11.1979 171.633 11.2185C171.626 11.2392 171.619 11.2599 171.614 11.2805C171.585 11.623 171.445 11.9283 171.277 12.2229L171.289 12.2364C171.31 12.2881 171.31 12.3398 171.284 12.3862C171.119 12.8147 170.953 13.2443 170.782 13.6727V13.6779L170.782 13.6759C170.694 14.0107 170.606 14.3455 170.514 14.6802C170.509 14.6978 170.505 14.7162 170.501 14.7347C170.477 14.8417 170.451 14.9564 170.328 14.9696C170.168 14.9901 170.135 14.8678 170.105 14.757C170.097 14.728 170.089 14.6997 170.08 14.6751C169.928 14.2609 169.777 13.8462 169.627 13.4314L169.625 13.4282V13.4268C169.25 12.3996 168.876 11.3711 168.494 10.3454C168.476 10.297 168.464 10.2438 168.451 10.19C168.414 10.0272 168.375 9.85801 168.174 9.79436L168.173 9.80285C168.022 9.78163 167.967 9.88605 167.913 9.99048C167.862 10.089 167.81 10.1875 167.677 10.1801L167.676 10.1777C167.669 10.1974 167.663 10.2172 167.657 10.2369C167.651 10.2554 167.645 10.274 167.638 10.2927L167.641 10.2989V10.4177L167.64 10.4247L167.647 10.4177C167.791 10.857 167.588 11.1901 167.318 11.501C167.312 11.5123 167.304 11.5232 167.295 11.5337C167.146 11.7467 167.102 11.993 167.058 12.2406L167.052 12.2726L167.054 12.2793C167.263 12.4898 167.121 12.6269 166.95 12.7583L166.949 12.7634L166.654 13.5074C166.598 13.6934 166.54 13.8781 166.481 14.0628C166.423 14.2476 166.365 14.4323 166.309 14.6183C166.299 14.6489 166.292 14.6828 166.285 14.7172C166.261 14.8333 166.235 14.9549 166.112 14.9748C165.928 15.0033 165.896 14.855 165.868 14.7252C165.86 14.6904 165.853 14.657 165.843 14.6286C165.499 13.6624 165.161 12.695 164.823 11.7275C164.484 10.7601 164.146 9.79256 163.802 8.82636C163.779 8.76028 163.76 8.69201 163.74 8.62341C163.682 8.41818 163.623 8.21009 163.456 8.05133L163.45 8.04937L163.451 8.05133C163.207 8.13263 163.129 7.98928 163.052 7.84621C163.022 7.78925 162.991 7.73233 162.95 7.68966L162.955 7.6898V7.46763ZM180.679 14.6014C180.577 14.6553 180.476 14.7092 180.439 14.8249H180.444C181.183 14.9903 181.917 15.0006 182.656 14.8198C182.645 14.8094 182.625 14.7888 182.625 14.7785C182.629 14.7529 182.637 14.7301 182.646 14.7079C182.649 14.6986 182.653 14.6894 182.656 14.6802C182.602 14.6344 182.543 14.5936 182.483 14.5528C182.302 14.428 182.12 14.3031 182.108 14.0344V8.30449C182.12 8.01862 182.316 7.8889 182.512 7.75813C182.561 7.72583 182.61 7.69346 182.656 7.65867C182.652 7.6535 182.648 7.64833 182.643 7.64316C182.634 7.63283 182.625 7.62249 182.625 7.61216C182.628 7.58921 182.636 7.56833 182.643 7.5469C182.648 7.53456 182.652 7.52204 182.656 7.50883C181.917 7.33832 181.183 7.32799 180.444 7.51399L180.569 7.69999C180.592 7.72009 180.616 7.73968 180.64 7.7593C180.77 7.8658 180.902 7.97303 180.92 8.165C180.929 9.447 180.929 10.731 180.928 12.0145C180.928 12.7846 180.928 13.5546 180.93 14.3238C180.911 14.4781 180.795 14.5398 180.679 14.6014ZM203.871 7.48816C203.865 7.73616 204.015 7.8395 204.242 7.86016L204.232 7.86533C204.352 8.06682 204.352 8.29412 204.352 8.52143V13.6986C204.352 13.9673 204.336 14.2307 204.222 14.4788C204.215 14.5767 204.129 14.5978 204.043 14.619C203.937 14.6449 203.831 14.6709 203.865 14.8353C203.991 14.9721 204.148 14.9551 204.3 14.9387C204.349 14.9335 204.398 14.9283 204.444 14.9283C205.426 14.9386 206.412 14.9438 207.395 14.9283C207.512 14.9268 207.63 14.9325 207.747 14.9382C208.057 14.9531 208.367 14.9681 208.665 14.8559C208.805 14.7746 208.818 14.6427 208.832 14.5106C208.843 14.4078 208.854 14.3048 208.924 14.2256C209.022 14.1687 209.001 14.0913 208.955 14.0137C208.922 13.9452 208.942 13.8702 208.964 13.7946C208.989 13.7049 209.014 13.6146 208.95 13.5333C208.752 13.646 208.601 13.8111 208.453 13.973C208.214 14.234 207.983 14.4866 207.575 14.4995C207.36 14.4973 207.144 14.4996 206.928 14.502C206.625 14.5052 206.321 14.5085 206.02 14.4995C205.987 14.4984 205.95 14.5006 205.914 14.5027C205.755 14.512 205.585 14.5219 205.534 14.2824C205.529 13.4506 205.524 12.6136 205.534 11.7766C205.536 11.7297 205.531 11.681 205.526 11.6318C205.512 11.4805 205.497 11.3252 205.653 11.2083C205.921 11.1579 206.189 11.1632 206.458 11.1686C206.714 11.1736 206.97 11.1787 207.224 11.1359C207.44 11.1024 207.538 11.2511 207.636 11.3991C207.735 11.5482 207.833 11.6966 208.051 11.6577C208.19 11.1668 208.216 10.676 208.04 10.1904C207.891 10.2102 207.798 10.3152 207.705 10.4204C207.604 10.5337 207.504 10.6473 207.333 10.6553C207.27 10.6296 207.208 10.6296 207.146 10.6553C206.977 10.6439 206.805 10.6586 206.634 10.6733C206.267 10.7046 205.9 10.736 205.555 10.5107C205.529 10.0489 205.533 9.58717 205.538 9.12533C205.541 8.84828 205.543 8.57124 205.54 8.2942L205.539 8.26662L205.537 8.24424C205.53 8.09865 205.523 7.94874 205.694 7.86533C206.145 7.82842 206.598 7.83107 207.05 7.8337H207.052C207.232 7.83475 207.412 7.8358 207.591 7.83434C207.982 7.90774 208.202 8.17988 208.42 8.45221C208.525 8.58232 208.63 8.71259 208.753 8.82118C208.877 8.77466 208.908 8.70748 208.81 8.60416L208.697 7.483C208.561 7.3742 208.404 7.38813 208.251 7.40173C208.201 7.40621 208.151 7.41066 208.103 7.41066C206.909 7.40032 205.716 7.40032 204.522 7.41066C204.466 7.41066 204.41 7.40488 204.352 7.39907C204.187 7.38226 204.021 7.36523 203.871 7.48816ZM193.769 11.2081C194.808 10.986 195.434 10.4589 195.661 9.51858V9.52895C195.775 9.43073 195.779 9.3326 195.661 9.23446C195.552 8.73844 195.315 8.31478 194.932 7.97891C194.762 7.70507 194.519 7.57074 194.194 7.58623L193.573 7.46223C193.496 7.4054 193.413 7.39507 193.325 7.4519H190.112C190.212 7.56205 190.325 7.63245 190.425 7.69499C190.593 7.79967 190.726 7.88234 190.706 8.09258C190.645 8.53557 190.652 8.98076 190.661 9.42523C190.665 9.65458 190.67 9.88425 190.664 10.1127C190.652 10.6476 190.658 11.1818 190.663 11.7155C190.673 12.5662 190.682 13.4157 190.619 14.2653L190.634 14.2622V14.272C190.63 14.5266 190.483 14.6238 190.249 14.6145C190.243 14.6175 190.237 14.6205 190.231 14.6234V14.8563V14.861L190.264 14.8661L190.231 14.8563L190.246 14.8562C190.938 14.8511 191.636 14.846 192.328 14.8357L192.295 14.8479L192.328 14.8404C192.367 14.6629 192.258 14.6395 192.149 14.6161C192.068 14.5986 191.987 14.5811 191.966 14.4994C191.806 13.9577 191.821 13.4048 191.835 12.8531C191.84 12.6575 191.845 12.4621 191.843 12.2673C191.827 11.4096 191.837 11.4096 192.706 11.4199C192.871 11.6305 193.037 11.8404 193.203 12.0503C193.702 12.6797 194.202 13.3099 194.674 13.9568C195.221 14.706 196.012 15.0109 196.777 14.6802C196.733 14.6319 196.67 14.6245 196.607 14.6172C196.527 14.6079 196.448 14.5986 196.405 14.5097L196.403 14.5044C196.236 14.4279 196.128 14.2963 196.061 14.1295L196.058 14.1273C195.309 13.1663 194.56 12.2104 193.769 11.2081Z" fill="#030E31"/>
</g>
<path d="M0.436523 11.4087C0.436523 10.3041 1.33195 9.40869 2.43652 9.40869C3.54109 9.40869 4.43652 10.3041 4.43652 11.4087C4.43652 12.5133 3.54109 13.4087 2.43652 13.4087C1.33195 13.4087 0.436523 12.5133 0.436523 11.4087Z" fill="#3A4B7F"/>
<defs>
<clipPath id="clip0_2001_3">
<rect width="201.93" height="22" fill="white" transform="translate(20.4365 0.408691)"/>
</clipPath>
</defs>
</svg>
