<svg width="222" height="23" viewBox="0 0 222 23" fill="none" xmlns="http://www.w3.org/2000/svg">
<g clip-path="url(#clip0_116_25)">
<path d="M20.019 6.70761C21.1193 6.49708 21.9647 6.51682 22.6691 7.60895C24.0579 9.78009 25.6547 11.8262 27.1642 13.9183C27.446 13.8131 27.2984 13.5959 27.2984 13.4446C27.3118 11.688 27.2984 9.93134 27.3051 8.18132C27.3051 7.55632 27.3655 6.92472 26.5806 6.60893H28.4121C27.5467 7.00367 27.6943 7.76685 27.6943 8.46425C27.6943 10.7933 27.6943 13.1288 27.6808 15.4578C27.6808 15.7078 27.8888 16.0895 27.4729 16.1947C27.1508 16.2736 27.0502 15.9249 26.9026 15.7276C25.0442 13.1617 23.1924 10.5959 21.3407 8.03001C21.3005 7.9708 21.2334 7.93132 21.0791 7.78C21.0791 9.10241 21.0791 10.313 21.0791 11.5235C21.0791 12.5433 21.0791 13.5696 21.0791 14.5894C21.0791 15.1354 21.1663 15.6421 21.8305 15.8789H19.9922C20.7772 15.6091 20.7235 14.971 20.7235 14.346C20.7168 12.2012 20.7235 10.0498 20.7235 7.90501C20.7235 7.38526 20.7235 6.87867 20.0257 6.70103L20.019 6.70761Z" fill="#CBD4F1"/>
<path d="M37.0855 6.5891C39.0311 6.5891 40.9768 6.59568 42.9292 6.58252C43.3116 6.58252 43.3787 6.73384 43.3652 7.04963C43.3451 7.43781 43.3652 7.82598 43.2915 8.31944C42.4797 6.52331 40.8963 6.89832 39.4605 6.86542C39.0848 6.85885 39.0177 7.01674 39.0245 7.33254C39.0379 8.32596 39.0245 9.32601 39.0311 10.3195C39.0311 10.5234 38.9909 10.7932 39.3196 10.7669C40.3461 10.6879 41.5068 11.1156 42.3455 9.88521V12.0234C41.6074 10.8523 40.5139 11.1419 39.5008 11.1024C39.1385 11.0892 39.0512 11.2274 39.058 11.5563C39.0714 12.7603 39.058 13.9642 39.0647 15.1683C39.0647 15.359 38.9976 15.6485 39.3331 15.6288C40.2924 15.5893 41.2652 15.7801 42.1978 15.4117C42.7815 15.1814 43.1975 14.7538 43.6671 14.3064C43.6001 14.7538 43.5262 15.2011 43.4591 15.6485C43.4122 15.9248 43.2176 15.938 42.9828 15.938C41.0104 15.938 39.0378 15.938 36.9982 15.8788C37.8436 15.563 37.7363 14.8919 37.7363 14.2604C37.7363 12.1353 37.7363 10.0168 37.7363 7.89176C37.7363 7.38517 37.7363 6.86542 36.958 6.78648C37.005 6.72068 37.0452 6.66147 37.0922 6.59568L37.0855 6.5891Z" fill="#CBD4F1"/>
<path d="M87.2125 15.9114C87.9103 15.5627 87.7895 14.9443 87.8499 14.3653C88.0311 12.7403 87.6352 11.2863 86.6623 9.94414C86.2196 9.3323 85.8908 8.6283 85.5151 7.9704C85.2199 7.45065 84.9247 6.92433 84.3008 6.58221C85.1327 6.58221 85.9579 6.57563 86.7899 6.58879C86.9643 6.58879 87.2193 6.65458 86.8838 6.87169C86.5618 7.08222 86.7429 7.36513 86.857 7.56907C87.5346 8.80595 88.2323 10.0362 88.9636 11.3257C89.6949 10.1349 90.3793 9.01645 91.0703 7.90461C91.3655 7.42434 91.5399 6.97038 90.6745 6.58879H92.8684C91.0837 7.8454 90.2652 9.76649 89.3662 11.5231C88.8429 12.5495 89.1649 13.9837 89.3125 15.2337C89.3527 15.589 89.7285 15.6548 89.9566 15.9114H87.2125Z" fill="#CBD4F1"/>
<path d="M138.212 11.1482C138.024 11.0956 137.924 11.1285 137.924 11.3588C137.937 12.5101 137.924 13.6615 137.937 14.8128C137.937 15.3128 138.152 15.6945 138.682 15.9182H135.918C136.682 15.622 136.642 15.0036 136.635 14.3786C136.629 12.2864 136.635 10.1943 136.635 8.10214C136.635 7.54291 136.723 6.94421 136.005 6.62842H138.655C137.729 7.02316 137.903 7.82581 137.937 8.53637C137.97 9.29953 137.769 10.0759 138.065 10.8259C138.219 10.8917 138.319 10.9838 138.205 11.1548L138.212 11.1482Z" fill="#CBD4F1"/>
<path d="M56.9308 14.1417C56.9308 14.701 56.6557 15.201 56.5216 15.7339C56.4813 15.8852 56.5014 16.1418 56.2397 16.1418C55.9915 16.1418 55.9848 15.9182 55.9244 15.7536C55.287 13.9773 54.6497 12.2075 54.0123 10.4311C53.7372 9.66795 53.4622 8.90479 53.2005 8.13503C52.9925 7.54949 52.798 6.95737 52.1338 6.62842H55.1596C53.9787 7.06922 54.4686 7.74028 54.6698 8.35872C55.2602 10.1746 55.864 11.9904 56.4813 13.7996C56.5081 13.8917 56.4678 14.1681 56.7362 14.0167C56.7764 13.9904 56.7631 13.872 56.7764 13.793C57.0851 13.793 56.9778 13.9904 56.9442 14.1483L56.9308 14.1417Z" fill="#CBD4F1"/>
<path d="M62.5529 13.8064C62.3717 14.4577 62.1973 15.1156 62.0027 15.7604C61.9558 15.9117 61.9759 16.1682 61.7008 16.1485C61.5063 16.1354 61.4727 15.9577 61.419 15.813C60.5602 13.4577 59.7015 11.1023 58.8427 8.75359C58.6817 8.67463 58.3932 8.70755 58.4871 8.38517C58.6348 7.85884 58.769 7.32593 58.9233 6.80618C58.9702 6.64829 58.9769 6.39828 59.2386 6.43117C59.413 6.45091 59.4466 6.6417 59.5002 6.79302C59.8155 7.67462 60.1376 8.56282 60.4529 9.44439C61.0031 10.9642 61.5465 12.4905 62.0966 14.0169C62.3315 13.905 62.2979 13.655 62.3986 13.484C62.6938 13.484 62.62 13.655 62.5461 13.813L62.5529 13.8064Z" fill="#CBD4F1"/>
<path d="M138.212 11.1481C138.165 11.0363 138.118 10.931 138.071 10.8192C139.171 9.72708 140.278 8.63494 141.372 7.54279C141.6 7.3191 141.915 7.10199 141.627 6.71383C142.11 6.66778 142.62 6.41119 143.056 6.84541C142.593 6.93752 142.224 7.18094 141.895 7.49674C141.083 8.29284 140.271 9.08892 139.453 9.88493C139.232 10.1021 139.064 10.2534 139.352 10.5823C140.546 11.9574 141.708 13.3587 142.888 14.7403C143.31 15.2338 143.841 15.6022 144.66 15.918C143.297 16.1417 142.338 15.793 141.533 15.0496C140.271 13.8785 139.218 12.5297 138.218 11.1481H138.212Z" fill="#CBD4F1"/>
<path d="M63.3309 10.4311C63.5389 9.68114 63.7401 8.9245 63.9683 8.18105C64.1695 7.53632 64.3976 6.90472 63.351 6.66788C64.0756 6.58235 64.7263 6.52972 65.404 6.70735C64.7867 6.90472 64.5653 7.35869 64.4043 7.88501C64.1158 8.85873 63.8005 9.82587 63.4919 10.793C63.1766 10.7864 63.2906 10.589 63.3241 10.4311H63.3309Z" fill="#CBD4F1"/>
<path d="M58.4864 8.37842C58.6071 8.50343 58.7212 8.62183 58.842 8.74684C58.4864 8.77316 58.5938 9.08242 58.5199 9.27319C58.1174 10.3061 57.9631 11.418 57.4062 12.3983C57.2922 12.2799 57.3056 12.1483 57.3794 12.0101C57.6277 10.7667 58.0571 9.56925 58.4931 8.37842H58.4864Z" fill="#CBD4F1"/>
<path d="M63.3312 10.4312C63.3849 10.5496 63.4386 10.6746 63.4989 10.7931C63.2373 11.8128 62.969 12.8259 62.5597 13.8063C62.5127 13.6944 62.459 13.5892 62.4121 13.4773C62.6603 12.4444 62.9488 11.4246 63.3379 10.4312H63.3312Z" fill="#CBD4F1"/>
<path d="M57.3732 12.0103L57.4 12.3985C57.4805 13.0432 57.1182 13.5695 56.9304 14.1419C56.9036 14.0104 56.9169 13.8656 56.7627 13.7867C56.9639 13.1946 57.1652 12.6024 57.3732 12.0103Z" fill="#CBD4F1"/>
<path d="M143.05 6.84581C142.594 6.58264 142.097 6.79318 141.621 6.71423C142.131 6.3787 142.701 6.64844 143.237 6.56949C143.372 6.54975 143.405 6.69449 143.325 6.77344C143.271 6.83265 143.144 6.82607 143.05 6.84581Z" fill="#CBD4F1"/>
<path fill-rule="evenodd" clip-rule="evenodd" d="M125.211 14.9184C125.889 15.8658 126.794 16.0237 127.787 15.879V15.8724C126.855 15.0565 126.135 14.0889 125.41 13.1153C124.966 12.5188 124.52 11.92 124.024 11.3525C125.714 10.8394 126.466 9.99722 126.392 8.82619C126.318 7.67482 125.425 6.74716 123.963 6.62874C122.906 6.54201 121.84 6.56296 120.773 6.58391C120.302 6.59317 119.831 6.60243 119.36 6.60243C120.072 6.91259 120.072 7.50198 120.071 8.09014V14.3263L120.072 14.3429C120.078 14.9558 120.086 15.566 119.36 15.8724H122.118C121.413 15.6553 121.38 15.1356 121.38 14.5829C121.386 14.2586 121.384 13.9332 121.383 13.6076C121.38 13.1734 121.378 12.7389 121.394 12.3065C121.397 12.23 121.384 12.1409 121.372 12.05C121.337 11.8049 121.3 11.5465 121.575 11.4841C121.997 11.3854 122.487 11.3328 122.849 11.8394C123.225 12.3658 123.628 12.8723 124.03 13.3789C124.433 13.8855 124.835 14.3921 125.211 14.9184ZM124.922 8.1878C124.647 7.2207 124.03 6.86542 122.608 6.86542C122.521 6.86542 122.433 6.86759 122.345 6.86977C122.169 6.87417 121.989 6.87862 121.809 6.86542C121.48 6.83911 121.406 6.97727 121.406 7.27332C121.413 8.41809 121.413 9.5694 121.413 10.7142C121.413 10.7396 121.412 10.767 121.41 10.7952C121.401 10.9496 121.391 11.1267 121.635 11.1155C121.853 11.1064 122.073 11.1165 122.293 11.1266C122.868 11.1529 123.445 11.1794 123.983 10.8655C124.875 10.3524 125.245 9.29966 124.922 8.1878Z" fill="#CBD4F1"/>
<path fill-rule="evenodd" clip-rule="evenodd" d="M110.58 11.287C110.593 8.39877 108.721 6.51714 105.837 6.50398C102.985 6.49082 101.093 8.34612 101.066 11.1817C101.039 14.0831 102.904 15.991 105.769 16.0042C108.668 16.0174 110.566 14.1555 110.58 11.287ZM108.486 14.0965C109.003 13.2083 109.164 12.2345 109.157 11.228C109.157 10.274 109.003 9.35286 108.533 8.50421C107.956 7.46468 107.098 6.83966 105.843 6.83309C104.595 6.81993 103.669 7.39231 103.132 8.45809C102.18 10.3266 102.186 12.2411 103.159 14.103C103.696 15.136 104.609 15.682 105.822 15.682C107.037 15.682 107.896 15.103 108.486 14.0965Z" fill="#CBD4F1"/>
<path d="M191.517 7.63C191.522 7.7075 191.528 7.785 191.528 7.8625L191.543 7.86232C191.519 7.88069 191.495 7.90134 191.471 7.9245C191.455 8.87522 191.45 9.83104 191.471 10.7869C191.69 10.9277 191.93 10.9104 192.169 10.8931C192.369 10.8787 192.569 10.8643 192.757 10.9419C193 10.9574 193.212 10.8799 193.387 10.7094L193.436 10.6468L193.485 10.5849C193.72 10.2871 193.955 9.98858 194.023 9.59855C194.297 8.89588 194.121 8.41534 193.387 7.847L193.393 7.85217C193.37 7.84928 193.347 7.84603 193.324 7.84253L193.387 7.84183C192.862 7.56334 192.301 7.59144 191.739 7.61958C191.665 7.62329 191.591 7.62699 191.517 7.63Z" fill="#AEBADF"/>
<path fill-rule="evenodd" clip-rule="evenodd" d="M152.491 16.3188C151.923 18.2925 151.354 20.2662 150.776 22.2812H150.771C150.84 22.2859 150.892 22.2905 150.932 22.2943C150.982 22.2988 151.016 22.3019 151.049 22.3019C172.337 22.3019 193.619 22.3019 214.906 22.3174C215.392 22.3174 215.479 22.1056 215.577 21.7439C216.69 17.6388 217.807 13.5361 218.925 9.43418C219.416 7.63001 219.908 5.82598 220.399 4.02194C220.575 3.37512 220.749 2.72685 220.926 2.07241C221.08 1.49836 221.236 0.919569 221.396 0.332883H221.008C217.488 0.332883 213.968 0.333027 210.447 0.33317C192.847 0.333888 175.249 0.334605 157.648 0.317383C157.131 0.317383 157.043 0.56022 156.934 0.927059C155.458 6.05413 153.976 11.1812 152.494 16.3082L152.491 16.3188ZM162.511 7.37633L162.505 7.37618C163.251 7.20144 163.991 7.07783 164.721 7.43249L164.737 7.43819C164.696 7.49502 164.655 7.55702 164.619 7.61386L164.611 7.61722C164.55 7.69843 164.491 7.77842 164.431 7.85839L164.429 7.85973C164.372 7.93693 164.315 8.01415 164.256 8.09246L164.252 8.1047C164.352 8.6854 164.556 9.2328 164.76 9.78139C164.797 9.88188 164.835 9.98277 164.872 10.0836C165.032 10.3057 165.145 10.5383 165.115 10.8224C165.175 11.0174 165.236 11.2124 165.298 11.4074C165.482 11.9926 165.666 12.5777 165.833 13.1629C165.887 13.3557 165.96 13.3121 166.066 13.2491L166.081 13.2404C166.132 12.8907 166.185 12.5413 166.236 12.1865C166.179 11.7989 166.277 11.4631 166.577 11.1996C166.585 11.1789 166.591 11.1583 166.597 11.1376C166.604 11.1169 166.611 11.0962 166.618 11.0755C166.618 11.0343 166.613 10.993 166.607 10.9516L166.611 10.934C166.561 10.5624 166.648 10.2423 166.933 9.98709C166.94 9.97216 166.947 9.9647 166.954 9.9647L167.291 9.12705C167.292 9.10646 167.298 9.08423 167.311 9.06058L167.321 9.06568L167.832 7.25218L168.019 7.23668C168.342 8.12287 168.663 9.00903 168.984 9.89524L168.986 9.89893C169.307 10.7837 169.629 11.6685 169.951 12.5532C170.036 12.5326 170.121 12.5132 170.207 12.4938C170.292 12.4745 170.377 12.4551 170.462 12.4344C170.547 12.3701 170.552 12.2836 170.557 12.1952C170.559 12.1496 170.561 12.1034 170.575 12.0596L170.571 12.0573V11.8144C170.625 11.5071 170.747 11.2274 170.869 10.9443L170.9 10.8738L170.922 10.8224C170.964 10.7759 171.004 10.7294 171.052 10.6829L171.052 10.6835L171.077 10.5858C171.121 10.4197 171.162 10.256 171.201 10.0888C171.214 10.1181 171.227 10.1474 171.239 10.1768C171.234 10.1458 171.226 10.1167 171.206 10.0939C171.284 9.84071 171.361 9.58881 171.439 9.33699C171.516 9.08509 171.594 8.83319 171.671 8.58003V8.57485L171.676 8.58687L171.682 8.57485V8.35273L171.679 8.34259L171.675 8.33198L171.666 8.35273C171.532 8.21177 171.545 8.04563 171.558 7.8807C171.564 7.80983 171.569 7.739 171.563 7.67069C171.575 7.67979 171.586 7.68898 171.597 7.69825C171.591 7.689 171.585 7.67981 171.578 7.67069H171.563C171.527 7.61442 171.453 7.60896 171.38 7.60353C171.264 7.59501 171.151 7.58657 171.186 7.38135C171.249 7.31477 171.322 7.30461 171.396 7.30789C171.8 7.18341 172.2 7.17507 172.603 7.31361C172.676 7.30413 172.744 7.31333 172.793 7.38652V7.38931L172.797 7.39169H172.793V7.57252L172.786 7.57863C172.673 7.75908 172.549 7.91842 172.307 7.76369L172.309 7.76104C171.987 8.00378 171.94 8.35398 171.924 8.71957C171.907 8.80058 171.869 8.85692 171.796 8.87413C171.888 9.11306 171.794 9.31303 171.7 9.51346C171.65 9.61882 171.601 9.72427 171.578 9.83553C171.568 9.87685 171.558 9.91826 171.542 9.95959C171.539 9.98929 171.536 10.0197 171.535 10.05C171.526 10.1829 171.518 10.313 171.345 10.3678C171.33 10.3626 171.318 10.3562 171.307 10.3489C171.287 10.4341 171.267 10.5193 171.246 10.6049V10.6065C171.228 10.6798 171.209 10.7547 171.192 10.8287C171.207 10.8577 171.22 10.8885 171.232 10.9206C171.237 10.9722 171.232 11.0187 171.206 11.0652C171.201 11.0859 171.195 11.1066 171.188 11.1272C171.182 11.1479 171.175 11.1686 171.17 11.1892C171.141 11.5316 171 11.837 170.832 12.1316L170.845 12.1451C170.865 12.1968 170.865 12.2485 170.839 12.2949C170.674 12.7234 170.509 13.153 170.338 13.5814V13.5866L170.337 13.5846C170.25 13.9194 170.162 14.2541 170.069 14.5889C170.065 14.6065 170.061 14.6248 170.057 14.6434C170.032 14.7504 170.007 14.8651 169.884 14.8783C169.724 14.8987 169.691 14.7765 169.661 14.6657C169.653 14.6367 169.645 14.6084 169.636 14.5838C169.484 14.1696 169.333 13.7549 169.182 13.3401L169.181 13.3369V13.3355C168.806 12.3082 168.432 11.2798 168.049 10.2541C168.031 10.2057 168.019 10.1525 168.007 10.0987C167.97 9.93586 167.931 9.7667 167.729 9.70305L167.729 9.71154C167.578 9.69032 167.523 9.79475 167.469 9.89917C167.418 9.9977 167.366 10.0962 167.233 10.0888L167.232 10.0864C167.225 10.1061 167.219 10.1258 167.212 10.1456C167.206 10.1641 167.201 10.1827 167.194 10.2014L167.197 10.2076V10.3264L167.196 10.3334L167.202 10.3264C167.347 10.7657 167.144 11.0988 166.874 11.4097C166.868 11.421 166.86 11.4319 166.851 11.4424C166.702 11.6554 166.658 11.9017 166.614 12.1493L166.607 12.1813L166.61 12.188C166.819 12.3984 166.677 12.5356 166.506 12.667L166.505 12.6721L166.21 13.4161C166.153 13.6021 166.095 13.7868 166.037 13.9715C165.979 14.1562 165.921 14.341 165.864 14.5269C165.855 14.5576 165.848 14.5915 165.841 14.6259C165.816 14.742 165.791 14.8635 165.668 14.8835C165.484 14.912 165.452 14.7637 165.423 14.6339C165.416 14.5991 165.408 14.5657 165.399 14.5373C165.055 13.5711 164.717 12.6037 164.378 11.6362C164.04 10.6688 163.702 9.70125 163.358 8.73505C163.335 8.66898 163.315 8.6007 163.296 8.5321C163.238 8.32688 163.179 8.11878 163.012 7.96003L163.006 7.95806L163.007 7.96003C162.763 8.04132 162.685 7.89797 162.608 7.7549C162.578 7.69794 162.547 7.64103 162.505 7.59835L162.511 7.59849V7.37633ZM180.234 14.5101C180.133 14.564 180.031 14.6179 179.995 14.7336H180C180.739 14.899 181.473 14.9093 182.212 14.7285C182.201 14.7181 182.18 14.6974 182.18 14.6872C182.184 14.6616 182.193 14.6388 182.202 14.6166C182.205 14.6072 182.209 14.5981 182.212 14.5889C182.158 14.5431 182.099 14.5023 182.039 14.4615C181.858 14.3366 181.675 14.2118 181.663 13.9431V8.21318C181.676 7.92731 181.872 7.79759 182.068 7.66682C182.117 7.63452 182.166 7.60215 182.212 7.56736C182.208 7.56219 182.203 7.55702 182.199 7.55185C182.19 7.54152 182.18 7.53118 182.18 7.52085C182.184 7.4979 182.191 7.47702 182.199 7.45559C182.203 7.44325 182.208 7.43073 182.212 7.41752C181.473 7.24701 180.739 7.23668 180 7.42268L180.124 7.60869C180.148 7.62878 180.171 7.64837 180.196 7.66799C180.326 7.77449 180.458 7.88172 180.475 8.07369C180.485 9.35569 180.485 10.6397 180.484 11.9232C180.484 12.6932 180.484 13.4632 180.486 14.2325C180.467 14.3868 180.35 14.4485 180.234 14.5101ZM203.426 7.39685C203.421 7.64485 203.571 7.74819 203.798 7.76885L203.788 7.77402C203.907 7.97551 203.907 8.20281 203.907 8.43012V13.6073C203.907 13.876 203.891 14.1394 203.778 14.3875C203.77 14.4854 203.685 14.5065 203.598 14.5277C203.493 14.5536 203.387 14.5796 203.421 14.744C203.547 14.8808 203.704 14.8638 203.856 14.8474C203.905 14.8422 203.954 14.837 204 14.837C204.981 14.8473 205.968 14.8525 206.95 14.837C207.067 14.8355 207.185 14.8412 207.303 14.8469C207.613 14.8618 207.922 14.8767 208.221 14.7646C208.361 14.6833 208.374 14.5514 208.388 14.4193C208.398 14.3165 208.409 14.2134 208.479 14.1342C208.577 14.0774 208.557 14 208.511 13.9224C208.478 13.8539 208.498 13.7789 208.519 13.7033C208.544 13.6136 208.57 13.5233 208.505 13.442C208.307 13.5547 208.156 13.7198 208.009 13.8817C207.77 14.1427 207.539 14.3953 207.131 14.4081C206.916 14.4059 206.7 14.4083 206.484 14.4107C206.18 14.4139 205.877 14.4172 205.576 14.4081C205.542 14.4071 205.506 14.4092 205.469 14.4114C205.31 14.4207 205.141 14.4306 205.09 14.1911C205.085 13.3593 205.079 12.5223 205.09 11.6853C205.091 11.6384 205.087 11.5897 205.082 11.5405C205.068 11.3892 205.053 11.2339 205.209 11.1169C205.476 11.0666 205.745 11.0719 206.014 11.0773C206.27 11.0823 206.525 11.0874 206.78 11.0446C206.996 11.0111 207.094 11.1598 207.191 11.3078C207.29 11.4568 207.389 11.6053 207.606 11.5664C207.745 11.0755 207.771 10.5847 207.596 10.0991C207.447 10.1189 207.353 10.2239 207.261 10.3291C207.16 10.4424 207.059 10.556 206.888 10.564C206.826 10.5383 206.764 10.5383 206.702 10.564C206.532 10.5526 206.361 10.5673 206.19 10.582C205.823 10.6133 205.456 10.6447 205.111 10.4194C205.085 9.95763 205.089 9.49586 205.094 9.03402C205.097 8.75698 205.099 8.47993 205.095 8.20289L205.094 8.17531L205.093 8.15293C205.086 8.00734 205.079 7.85743 205.25 7.77402C205.7 7.73711 206.154 7.73976 206.605 7.74239H206.608C206.788 7.74344 206.968 7.7445 207.147 7.74303C207.538 7.81644 207.757 8.08857 207.976 8.3609C208.081 8.49101 208.185 8.62128 208.309 8.72987C208.433 8.68335 208.464 8.61618 208.366 8.51285L208.252 7.39169C208.116 7.28289 207.96 7.29682 207.807 7.31042C207.756 7.3149 207.707 7.31935 207.658 7.31935C206.465 7.30901 205.271 7.30901 204.078 7.31935C204.022 7.31935 203.965 7.31357 203.908 7.30776C203.743 7.29095 203.576 7.27392 203.426 7.39685ZM193.325 11.1168C194.364 10.8947 194.989 10.3676 195.216 9.42727V9.43764C195.33 9.33943 195.335 9.24129 195.216 9.14315C195.108 8.64713 194.871 8.22348 194.488 7.8876C194.317 7.61376 194.075 7.47943 193.749 7.49492L193.129 7.37092C193.052 7.31409 192.969 7.30376 192.881 7.36059H189.668C189.768 7.47074 189.881 7.54114 189.981 7.60368C190.148 7.70836 190.281 7.79103 190.262 8.00127C190.2 8.44426 190.208 8.88945 190.217 9.33393C190.221 9.56328 190.225 9.79294 190.22 10.0214C190.208 10.5563 190.214 11.0905 190.219 11.6242C190.229 12.4749 190.237 13.3244 190.175 14.174L190.189 14.1709V14.1807C190.185 14.4353 190.038 14.5325 189.804 14.5232C189.799 14.5262 189.792 14.5292 189.786 14.5321V14.765V14.7697L189.82 14.7748L189.786 14.765L189.802 14.7649C190.494 14.7598 191.192 14.7546 191.884 14.7444L191.85 14.7566L191.884 14.7491C191.923 14.5716 191.813 14.5482 191.705 14.5247C191.623 14.5073 191.542 14.4898 191.522 14.4081C191.362 13.8664 191.377 13.3135 191.391 12.7618C191.396 12.5662 191.401 12.3708 191.399 12.176C191.383 11.3183 191.393 11.3183 192.261 11.3286C192.426 11.5392 192.593 11.7491 192.759 11.959C193.258 12.5884 193.757 13.2186 194.229 13.8655C194.777 14.6147 195.568 14.9196 196.333 14.5889C196.289 14.5406 196.226 14.5332 196.162 14.5258C196.083 14.5166 196.004 14.5073 195.96 14.4184L195.959 14.4131C195.791 14.3366 195.684 14.205 195.617 14.0382L195.614 14.036C194.865 13.075 194.116 12.1191 193.325 11.1168Z" fill="#AEBADF"/>
</g>
<path d="M-0.0078125 11.3174C-0.0078125 10.2128 0.887618 9.31738 1.99219 9.31738C3.09676 9.31738 3.99219 10.2128 3.99219 11.3174C3.99219 12.422 3.09676 13.3174 1.99219 13.3174C0.887618 13.3174 -0.0078125 12.422 -0.0078125 11.3174Z" fill="#A0A6BA"/>
<defs>
<clipPath id="clip0_116_25">
<rect width="201.93" height="22" fill="white" transform="translate(19.9922 0.317383)"/>
</clipPath>
</defs>
</svg>
