<svg width="78" height="29" viewBox="0 0 78 29" fill="none" xmlns="http://www.w3.org/2000/svg">
<g clip-path="url(#clip0_117_2322)">
<mask id="mask0_117_2322" style="mask-type:luminance" maskUnits="userSpaceOnUse" x="0" y="0" width="78" height="29">
<path d="M77.1932 0.408691H0.811523V28.4087H77.1932V0.408691Z" fill="white"/>
</mask>
<g mask="url(#mask0_117_2322)">
<path d="M28.2031 0.408691H32.3091C32.3091 2.51281 32.3091 4.61693 32.3091 6.72106C32.5713 6.39456 32.883 6.10268 33.2392 5.88007C33.9763 5.4101 34.8717 5.2518 35.7324 5.31611C36.2914 5.35569 36.8455 5.49915 37.3402 5.76629C37.8201 6.02353 38.2307 6.3995 38.5423 6.84474C39.1508 7.71541 39.3784 8.79385 39.3882 9.84259C39.3882 12.3161 39.3882 14.7912 39.3882 17.268C38.013 17.268 36.6378 17.268 35.2625 17.268C35.2625 15.121 35.2625 12.979 35.2625 10.832C35.2526 10.3868 35.1685 9.9069 34.8816 9.55078C34.6737 9.28854 34.3473 9.14014 34.0158 9.11541C33.6052 9.07089 33.1699 9.17969 32.8681 9.47159C32.507 9.82282 32.3636 10.3422 32.3338 10.832C32.3239 11.203 32.3338 11.574 32.3289 11.9451C32.3289 13.7194 32.3289 15.4937 32.3289 17.268C30.9536 17.268 29.5784 17.268 28.2031 17.268C28.2031 11.6482 28.2031 6.02848 28.2031 0.408691Z" fill="#030E31"/>
<path fill-rule="evenodd" clip-rule="evenodd" d="M19.0612 5.34115C20.0803 5.21746 21.1538 5.39061 22.0294 5.94468C22.3411 6.14256 22.623 6.38496 22.8456 6.67683C22.8456 6.31405 22.8456 5.94962 22.8456 5.58355C24.1747 5.58355 25.5039 5.58355 26.8329 5.58355C26.8329 9.4785 26.8329 13.3717 26.8329 17.2634C25.5022 17.2684 24.1764 17.2684 22.8456 17.2684C22.8456 16.9023 22.8456 16.5378 22.8456 16.1751C22.5241 16.6104 22.0789 16.9468 21.5891 17.1744C20.5998 17.6295 19.457 17.6641 18.4082 17.4118C17.4386 17.1793 16.5482 16.6549 15.8605 15.9376C15.0937 15.1461 14.5693 14.127 14.322 13.0585C14.0301 11.8118 14.0746 10.4811 14.4902 9.26903C14.8464 8.21534 15.4796 7.24574 16.3354 6.53337C17.1071 5.88532 18.0619 5.45987 19.0612 5.34115ZM20.2238 9.05633C19.7884 9.11075 19.3629 9.27892 19.0167 9.55104C18.6803 9.81818 18.4181 10.1793 18.2697 10.58C18.0371 11.2182 18.0768 11.9553 18.3884 12.5638C18.6061 12.9793 18.9474 13.3256 19.358 13.5432C20.1644 13.9835 21.223 13.9291 21.97 13.38C22.3658 13.0931 22.6627 12.6825 22.816 12.2174C23.0188 11.5991 22.9742 10.9016 22.6774 10.3178C22.4499 9.8775 22.0789 9.5065 21.6287 9.2888C21.1983 9.07117 20.6986 8.99697 20.2238 9.05633Z" fill="#030E31"/>
<path fill-rule="evenodd" clip-rule="evenodd" d="M45.8644 5.33052C46.9973 5.23158 48.1548 5.39978 49.1937 5.8648C50.1683 6.29518 51.0241 6.99271 51.6375 7.86339C52.2262 8.70437 52.5874 9.69375 52.6961 10.7129C52.8248 11.8952 52.6417 13.1171 52.1174 14.1906C51.6622 15.1355 50.9449 15.9518 50.0693 16.5256C49.2481 17.0697 48.2983 17.4062 47.3237 17.5199C46.0969 17.6633 44.8304 17.4952 43.7074 16.9708C42.7725 16.5405 41.9513 15.8627 41.3576 15.0217C40.7788 14.2054 40.4177 13.2358 40.299 12.2415C40.1605 11.0987 40.3138 9.91635 40.7838 8.86268C41.1993 7.9178 41.8721 7.09165 42.7082 6.48812C43.6283 5.82027 44.7364 5.42946 45.8644 5.33052ZM46.1315 9.11002C45.429 9.20402 44.781 9.64922 44.4495 10.2776C44.128 10.8761 44.0785 11.6132 44.3011 12.2563C44.4545 12.6917 44.7364 13.0776 45.1074 13.3496C45.8743 13.9135 46.9973 13.9383 47.7937 13.409C48.1796 13.1518 48.4814 12.7708 48.6495 12.3405C48.9018 11.7022 48.8721 10.9552 48.5654 10.3419C48.3626 9.92624 48.0262 9.58 47.6205 9.3623C47.1703 9.11498 46.6361 9.03582 46.1315 9.11002Z" fill="#030E31"/>
<path fill-rule="evenodd" clip-rule="evenodd" d="M59.077 5.33059C60.2296 5.23165 61.4119 5.41469 62.4607 5.90445C63.4155 6.33978 64.2466 7.03731 64.8452 7.90303C65.424 8.73413 65.7752 9.71862 65.8841 10.7278C66.0077 11.8953 65.8247 13.0973 65.3201 14.156C64.8699 15.1009 64.1576 15.9221 63.2869 16.5058C62.4162 17.0945 61.3922 17.4408 60.3484 17.5348C59.1907 17.6486 57.9936 17.4755 56.93 16.9907C55.9653 16.5504 55.1194 15.8529 54.5159 14.9872C53.942 14.161 53.5858 13.1864 53.472 12.1872C53.3484 11.0543 53.5066 9.88181 53.9766 8.84296C54.402 7.88819 55.0897 7.05215 55.9405 6.45356C56.8607 5.80056 57.959 5.41964 59.077 5.33059ZM59.3145 9.1101C58.5872 9.20412 57.9243 9.67899 57.6028 10.3419C57.2961 10.9504 57.2664 11.6826 57.5088 12.3207C57.672 12.7461 57.959 13.1221 58.3349 13.3843C59.1116 13.9186 60.2098 13.9235 60.9915 13.3991C61.3774 13.1419 61.6742 12.756 61.8423 12.3257C62.0847 11.6875 62.055 10.9455 61.7484 10.337C61.5405 9.92145 61.2091 9.57512 60.8034 9.35742C60.3484 9.11505 59.819 9.0359 59.3145 9.1101Z" fill="#030E31"/>
<path d="M0.811523 5.5835C2.30222 5.5835 3.79291 5.5835 5.2836 5.5835C6.17901 7.86901 7.06947 10.1495 7.96488 12.4351C8.86523 10.1495 9.76067 7.86901 10.6659 5.5835C12.1154 5.5835 13.5698 5.5835 15.0242 5.5835C12.8113 10.923 10.5966 16.2624 8.38043 21.6019C6.92272 21.6019 5.46335 21.6019 4.00233 21.6019C4.59928 20.187 5.19621 18.7722 5.79315 17.3574C4.13426 13.436 2.47372 9.51307 0.811523 5.58845V5.5835Z" fill="#030E31"/>
<path d="M72.301 0.408691H77.1936V0.413638C75.7342 3.94085 74.2748 7.46805 72.8155 10.9952C71.1829 10.9952 69.5521 10.9952 67.9229 10.9952C69.3823 7.46805 70.8416 3.9359 72.301 0.408691Z" fill="#030E31"/>
<path d="M68.8236 12.0444C69.4024 11.9652 70.0059 12.0642 70.5204 12.3461C71.2279 12.7271 71.7324 13.4592 71.8511 14.2557C71.9995 15.1808 71.6582 16.1702 70.9557 16.7886C70.2632 17.4118 69.2441 17.6246 68.3537 17.3723C67.5769 17.1596 66.9239 16.566 66.6271 15.819C66.2709 14.9433 66.4094 13.8946 66.9783 13.1376C67.4087 12.544 68.0914 12.1384 68.8236 12.0444Z" fill="#030E31"/>
<path d="M29.9445 19.1088C30.4392 18.6389 31.1219 18.4163 31.7947 18.3766C32.2745 18.352 32.7741 18.3915 33.2193 18.5943C33.2193 19.2606 33.2193 19.9284 33.2193 20.5978C32.9176 20.4593 32.5713 20.405 32.2448 20.4593C31.9975 20.5039 31.765 20.6424 31.6413 20.8601C31.5077 21.0827 31.4929 21.3498 31.5027 21.6022C32.0437 21.6022 32.5862 21.6022 33.1303 21.6022C33.1303 22.2518 33.1303 22.9015 33.1303 23.5512C32.5862 23.5512 32.0437 23.5512 31.5027 23.5512C31.5027 25.1078 31.5027 26.6662 31.5027 28.2262C30.698 28.2262 29.8934 28.2262 29.0886 28.2262C29.0886 26.6662 29.0886 25.1078 29.0886 23.5512C28.7951 23.5512 28.4999 23.5512 28.2031 23.5512C28.2031 22.9015 28.2031 22.2518 28.2031 21.6022C28.4999 21.6022 28.7951 21.6022 29.0886 21.6022C29.0836 21.2262 29.1035 20.8452 29.1925 20.4742C29.3112 19.9647 29.5586 19.47 29.9445 19.1088Z" fill="#030E31"/>
<path d="M41.0356 21.4829C41.5205 21.3691 42.0497 21.3988 42.5197 21.5769C42.96 21.7451 43.336 22.0815 43.5586 22.497C43.8306 22.9867 43.9197 23.5557 43.9098 24.1147C43.9098 25.4834 43.9098 26.8537 43.9098 28.2256C43.1018 28.2256 42.2954 28.2256 41.4907 28.2256C41.4907 27.0252 41.4907 25.8247 41.4907 24.6242C41.4858 24.3621 41.4363 24.0899 41.2731 23.8822C40.9713 23.5111 40.3183 23.5309 40.0363 23.9168C39.8681 24.1345 39.8137 24.4165 39.8137 24.6836C39.8137 25.8643 39.8137 27.045 39.8137 28.2256C39.0024 28.2256 38.1927 28.2256 37.3848 28.2256C37.3848 26.016 37.3848 23.808 37.3848 21.6016C38.1927 21.6016 39.0007 21.6016 39.8088 21.6016C39.812 21.8555 39.8137 22.1095 39.8137 22.3635C40.0808 21.9232 40.531 21.5966 41.0356 21.4829Z" fill="#030E31"/>
<path fill-rule="evenodd" clip-rule="evenodd" d="M46.8877 21.5225C47.4171 21.3791 47.9909 21.3741 48.5153 21.5424C48.9407 21.6759 49.3365 21.9332 49.5987 22.2993C49.5987 22.0651 49.5987 21.8326 49.5987 21.6017C50.3935 21.6017 51.1883 21.6017 51.9831 21.6017C51.9831 23.8081 51.9831 26.0161 51.9831 28.2257C51.1883 28.2257 50.3935 28.2257 49.5987 28.2257C49.5987 27.9916 49.5987 27.7591 49.5987 27.5283C49.1881 28.0823 48.5004 28.3741 47.8227 28.4088H47.5407C47.0262 28.384 46.5117 28.2257 46.0764 27.9438C45.3245 27.459 44.8298 26.6328 44.6566 25.7622C44.429 24.6392 44.6566 23.3876 45.4036 22.4922C45.7846 22.0321 46.3089 21.6809 46.8877 21.5225ZM48.0552 23.5954C47.8821 23.63 47.7139 23.6943 47.5605 23.7883C47.1401 24.0455 46.8927 24.5501 46.9471 25.0399C46.9867 25.5346 47.3379 25.9848 47.803 26.1579C48.3322 26.3657 48.9951 26.2124 49.3563 25.7671C49.7322 25.3318 49.7669 24.6491 49.4453 24.1791C49.1534 23.724 48.5796 23.4965 48.0552 23.5954Z" fill="#030E31"/>
<path d="M56.6085 21.4885C57.1032 21.3698 57.6325 21.3945 58.1075 21.5727C58.5576 21.7408 58.9335 22.0822 59.1661 22.5027C59.4333 22.9924 59.5173 23.5614 59.5124 24.1154C59.5124 25.4841 59.5124 26.8543 59.5124 28.2263C58.7044 28.2263 57.8963 28.2263 57.0883 28.2263C57.0883 27.016 57.0883 25.8057 57.0883 24.5953C57.0834 24.2935 57.0043 23.962 56.7569 23.7691C56.4254 23.5217 55.8962 23.5713 55.6389 23.9076C55.4559 24.1451 55.4063 24.4518 55.4113 24.7437C55.4113 25.9045 55.4113 27.0655 55.4113 28.2263C54.6033 28.2263 53.7953 28.2263 52.9873 28.2263C52.9873 26.0167 52.9873 23.8086 52.9873 21.6023C53.7953 21.6023 54.6033 21.6023 55.4113 21.6023C55.4113 21.8563 55.4113 22.1102 55.4113 22.3642C55.6735 21.9288 56.1138 21.6072 56.6085 21.4885Z" fill="#030E31"/>
<path d="M62.1944 21.7248C63.1738 21.3093 64.3315 21.3043 65.2962 21.7595C65.2962 22.4916 65.2962 23.2254 65.2962 23.9609C64.8657 23.6739 64.3414 23.5354 63.8318 23.6047C63.4509 23.6591 63.0799 23.8421 62.8573 24.1587C62.5159 24.6337 62.5456 25.346 62.9464 25.7813C63.1936 26.0534 63.5597 26.1969 63.9258 26.2266C64.4107 26.2711 64.9004 26.1227 65.2962 25.8357C65.2962 26.5712 65.2962 27.305 65.2962 28.0372C64.8311 28.2746 64.3117 28.3934 63.7922 28.4082H63.5548C63.1244 28.3884 62.6891 28.3142 62.2834 28.1559C61.7442 27.9481 61.2544 27.6018 60.8982 27.1418C60.5767 26.741 60.364 26.2612 60.2601 25.7615C60.0424 24.7375 60.2156 23.6047 60.8636 22.7587C61.205 22.3036 61.67 21.9474 62.1944 21.7248Z" fill="#030E31"/>
<path fill-rule="evenodd" clip-rule="evenodd" d="M67.0765 22.1357C67.8976 21.4975 69.0008 21.2897 70.0101 21.4875C70.7966 21.631 71.5387 22.0713 72.0037 22.7244C72.5874 23.5208 72.7655 24.5547 72.6616 25.5244C71.1413 25.5244 69.6192 25.5244 68.0956 25.5244C68.1203 25.8212 68.2736 26.1032 68.5111 26.2812C68.8475 26.5335 69.3075 26.578 69.7132 26.4742C69.9902 26.4 70.2178 26.207 70.386 25.9844C71.0753 26.2482 71.7645 26.5137 72.4539 26.7809C72.1273 27.3349 71.6327 27.7901 71.0489 28.0572C70.5443 28.2897 69.9853 28.3887 69.4313 28.4084H69.1146C68.2736 28.3788 67.4228 28.1215 66.7945 27.5476C66.3789 27.1717 66.0772 26.672 65.9139 26.1377C65.7507 25.5986 65.7061 25.0246 65.7704 24.4706C65.8694 23.5554 66.3443 22.6897 67.0765 22.1357ZM68.5556 23.4318C68.3033 23.5802 68.1401 23.8522 68.1104 24.1441C68.8558 24.1441 69.6011 24.1441 70.3464 24.1441C70.3168 23.8176 70.1139 23.5159 69.822 23.3774C69.4263 23.1844 68.9316 23.1992 68.5556 23.4318Z" fill="#030E31"/>
<path d="M34.9363 18.337C35.5101 18.2282 36.1334 18.5398 36.3907 19.0692C36.638 19.5392 36.544 20.1526 36.1879 20.5384C35.8069 20.9737 35.1341 21.1222 34.6097 20.8749C34.1051 20.6523 33.7638 20.0981 33.8182 19.5441C33.8627 18.9505 34.3525 18.431 34.9363 18.337Z" fill="#030E31"/>
<path d="M33.9619 21.6035C34.77 21.6035 35.5763 21.6035 36.381 21.6035C36.3844 23.8098 36.3844 26.0178 36.381 28.2275C35.5763 28.2275 34.77 28.2275 33.9619 28.2275C33.9619 26.0178 33.9619 23.8098 33.9619 21.6035Z" fill="#030E31"/>
</g>
</g>
<defs>
<clipPath id="clip0_117_2322">
<rect width="77" height="28" fill="white" transform="translate(0.811523 0.408691)"/>
</clipPath>
</defs>
</svg>
