<svg width="72" height="27" viewBox="0 0 72 27" fill="none" xmlns="http://www.w3.org/2000/svg">
<g clip-path="url(#clip0_116_72)">
<mask id="mask0_116_72" style="mask-type:luminance" maskUnits="userSpaceOnUse" x="0" y="0" width="72" height="27">
<path d="M71.209 0.317383H0.283203V26.3174H71.209V0.317383Z" fill="white"/>
</mask>
<g mask="url(#mask0_116_72)">
<path d="M25.7178 0.317383H29.5305C29.5305 2.27121 29.5305 4.22504 29.5305 6.17886C29.774 5.87569 30.0633 5.60466 30.3941 5.39794C31.0786 4.96155 31.91 4.81455 32.7093 4.87427C33.2284 4.91102 33.7429 5.04424 34.2022 5.2923C34.6478 5.53116 35.0291 5.88028 35.3185 6.29371C35.8835 7.10219 36.0949 8.1036 36.104 9.07743C36.104 11.3743 36.104 13.6726 36.104 15.9725C34.827 15.9725 33.5499 15.9725 32.2729 15.9725C32.2729 13.9788 32.2729 11.9898 32.2729 9.99621C32.2638 9.58273 32.1857 9.13715 31.9192 8.80646C31.7263 8.56296 31.4231 8.42516 31.1153 8.40219C30.7341 8.36085 30.3298 8.46188 30.0496 8.73293C29.7143 9.05907 29.581 9.54137 29.5535 9.99621C29.5443 10.3407 29.5535 10.6852 29.5489 11.0298C29.5489 12.6773 29.5489 14.3249 29.5489 15.9725C28.2719 15.9725 26.9949 15.9725 25.7178 15.9725C25.7178 10.7541 25.7178 5.53575 25.7178 0.317383Z" fill="#CBD4F1"/>
<path fill-rule="evenodd" clip-rule="evenodd" d="M17.2298 4.89752C18.1761 4.78267 19.1729 4.94345 19.9859 5.45794C20.2754 5.64169 20.5372 5.86677 20.7439 6.1378C20.7439 5.80093 20.7439 5.46253 20.7439 5.12261C21.9781 5.12261 23.2122 5.12261 24.4464 5.12261C24.4464 8.73935 24.4464 12.3545 24.4464 15.9682C23.2107 15.9728 21.9796 15.9728 20.7439 15.9728C20.7439 15.6328 20.7439 15.2944 20.7439 14.9576C20.4453 15.3618 20.0319 15.6742 19.5771 15.8855C18.6584 16.3081 17.5973 16.3403 16.6234 16.106C15.7231 15.8901 14.8962 15.4032 14.2577 14.7371C13.5457 14.0021 13.0587 13.0558 12.8291 12.0636C12.5581 10.906 12.5994 9.67031 12.9853 8.54484C13.316 7.56642 13.904 6.66607 14.6987 6.00458C15.4153 5.40282 16.3019 5.00777 17.2298 4.89752ZM18.3093 8.34734C17.905 8.39787 17.51 8.55402 17.1884 8.80671C16.8761 9.05476 16.6326 9.39008 16.4948 9.76221C16.2789 10.3548 16.3156 11.0392 16.605 11.6042C16.8072 11.9901 17.1242 12.3117 17.5054 12.5137C18.2542 12.9226 19.2372 12.8721 19.9309 12.3622C20.2983 12.0958 20.5739 11.7145 20.7164 11.2826C20.9047 10.7084 20.8634 10.0608 20.5878 9.5187C20.3764 9.10985 20.0319 8.76535 19.6139 8.5632C19.2142 8.36112 18.7503 8.29222 18.3093 8.34734Z" fill="#CBD4F1"/>
<path fill-rule="evenodd" clip-rule="evenodd" d="M42.1176 4.88765C43.1695 4.79578 44.2445 4.95196 45.2092 5.38377C46.114 5.78341 46.9088 6.43111 47.4784 7.2396C48.025 8.02052 48.3604 8.93923 48.4614 9.88554C48.5809 10.9834 48.4109 12.1181 47.924 13.1148C47.5014 13.9922 46.8353 14.7502 46.0222 15.2831C45.2597 15.7884 44.3777 16.1008 43.4728 16.2064C42.3335 16.3396 41.1576 16.1834 40.1148 15.6965C39.2466 15.2969 38.484 14.6675 37.9328 13.8866C37.3954 13.1286 37.06 12.2283 36.9498 11.305C36.8212 10.2439 36.9635 9.14593 37.4 8.16751C37.7858 7.29013 38.4106 6.52299 39.1868 5.96257C40.0413 5.34242 41.0703 4.97952 42.1176 4.88765ZM42.3657 8.39719C41.7134 8.48447 41.1116 8.89787 40.8038 9.48133C40.5053 10.0372 40.4593 10.7216 40.666 11.3187C40.8084 11.723 41.0703 12.0813 41.4148 12.3339C42.1268 12.8576 43.1695 12.8806 43.9092 12.3891C44.2674 12.1502 44.5476 11.7965 44.7039 11.3969C44.9381 10.8042 44.9106 10.1106 44.6257 9.54104C44.4374 9.15511 44.125 8.8336 43.7484 8.63145C43.3303 8.40179 42.8342 8.32829 42.3657 8.39719Z" fill="#CBD4F1"/>
<path fill-rule="evenodd" clip-rule="evenodd" d="M54.3876 4.88783C55.458 4.79595 56.5558 4.96592 57.5297 5.42069C58.4162 5.82493 59.188 6.47263 59.7438 7.27652C60.2813 8.04825 60.6074 8.96242 60.7084 9.89948C60.8233 10.9836 60.6533 12.0998 60.1848 13.0829C59.7667 13.9603 59.1053 14.7228 58.2968 15.2648C57.4883 15.8115 56.5374 16.1331 55.5681 16.2203C54.4933 16.3259 53.3816 16.1652 52.3939 15.715C51.4982 15.3062 50.7127 14.6585 50.1522 13.8546C49.6194 13.0875 49.2886 12.1825 49.183 11.2546C49.0681 10.2027 49.2152 9.11396 49.6516 8.14931C50.0466 7.26274 50.6852 6.48641 51.4752 5.93058C52.3297 5.32422 53.3494 4.97051 54.3876 4.88783ZM54.6081 8.39736C53.9328 8.48467 53.3173 8.92562 53.0187 9.54117C52.7339 10.1062 52.7063 10.7861 52.9314 11.3786C53.083 11.7737 53.3494 12.1228 53.6986 12.3662C54.4197 12.8624 55.4395 12.867 56.1653 12.38C56.5236 12.1412 56.7992 11.7829 56.9555 11.3833C57.1805 10.7906 57.153 10.1016 56.8681 9.53662C56.6752 9.15076 56.3675 8.82917 55.9908 8.62702C55.5681 8.40196 55.0766 8.32846 54.6081 8.39736Z" fill="#CBD4F1"/>
<path d="M0.283203 5.12256C1.66742 5.12256 3.05163 5.12256 4.43585 5.12256C5.2673 7.24482 6.09415 9.36246 6.9256 11.4848C7.76165 9.36246 8.59309 7.24482 9.4337 5.12256C10.7797 5.12256 12.1302 5.12256 13.4808 5.12256C11.4259 10.0806 9.36943 15.0387 7.31147 19.9968C5.95788 19.9968 4.60275 19.9968 3.2461 19.9968C3.8004 18.683 4.3547 17.3692 4.909 16.0554C3.3686 12.4142 1.82667 8.77145 0.283203 5.12716V5.12256Z" fill="#CBD4F1"/>
<path d="M66.6659 0.317383H71.209V0.321976C69.8539 3.59724 68.4988 6.8725 67.1437 10.1477C65.6278 10.1477 64.1134 10.1477 62.6006 10.1477C63.9557 6.8725 65.3108 3.59265 66.6659 0.317383Z" fill="#CBD4F1"/>
<path d="M63.4369 11.1216C63.9743 11.0481 64.5347 11.14 65.0125 11.4018C65.6694 11.7555 66.1379 12.4354 66.2482 13.175C66.386 14.034 66.069 14.9527 65.4168 15.5269C64.7736 16.1057 63.8274 16.3033 63.0005 16.0689C62.2793 15.8714 61.6729 15.3202 61.3973 14.6266C61.0666 13.8134 61.1952 12.8397 61.7235 12.1368C62.1231 11.5856 62.757 11.2089 63.4369 11.1216Z" fill="#CBD4F1"/>
<path d="M27.3347 17.6816C27.7941 17.2452 28.428 17.0385 29.0528 17.0017C29.4983 16.9788 29.9624 17.0155 30.3758 17.2038C30.3758 17.8225 30.3758 18.4426 30.3758 19.0642C30.0955 18.9356 29.774 18.8851 29.4708 18.9356C29.2411 18.9769 29.0252 19.1056 28.9104 19.3077C28.7863 19.5144 28.7726 19.7625 28.7818 19.9968C29.284 19.9968 29.7877 19.9968 30.293 19.9968C30.293 20.6001 30.293 21.2034 30.293 21.8066C29.7877 21.8066 29.284 21.8066 28.7818 21.8066C28.7818 23.2521 28.7818 24.6991 28.7818 26.1477C28.0345 26.1477 27.2873 26.1477 26.54 26.1477C26.54 24.6991 26.54 23.2521 26.54 21.8066C26.2675 21.8066 25.9935 21.8066 25.7178 21.8066C25.7178 21.2034 25.7178 20.6001 25.7178 19.9968C25.9935 19.9968 26.2675 19.9968 26.54 19.9968C26.5355 19.6477 26.5538 19.2939 26.6366 18.9494C26.7468 18.4763 26.9765 18.0169 27.3347 17.6816Z" fill="#AEBADF"/>
<path d="M37.6342 19.8863C38.0844 19.7807 38.5759 19.8082 39.0124 19.9735C39.4211 20.1298 39.7703 20.4421 39.977 20.828C40.2297 21.2827 40.3124 21.811 40.3031 22.3301C40.3031 23.601 40.3031 24.8735 40.3031 26.1474C39.5529 26.1474 38.8041 26.1474 38.0569 26.1474C38.0569 25.0327 38.0569 23.918 38.0569 22.8032C38.0522 22.5598 38.0063 22.3071 37.8547 22.1142C37.5745 21.7697 36.9682 21.788 36.7063 22.1463C36.5502 22.3485 36.4996 22.6103 36.4996 22.8584C36.4996 23.9547 36.4996 25.0511 36.4996 26.1474C35.7463 26.1474 34.9944 26.1474 34.2441 26.1474C34.2441 24.0956 34.2441 22.0453 34.2441 19.9965C34.9944 19.9965 35.7447 19.9965 36.495 19.9965C36.4981 20.2323 36.4996 20.4681 36.4996 20.704C36.7477 20.2951 37.1657 19.9919 37.6342 19.8863Z" fill="#AEBADF"/>
<path fill-rule="evenodd" clip-rule="evenodd" d="M43.069 19.9231C43.5605 19.7899 44.0934 19.7853 44.5803 19.9415C44.9754 20.0655 45.3429 20.3044 45.5863 20.6444C45.5863 20.4269 45.5863 20.211 45.5863 19.9966C46.3244 19.9966 47.0624 19.9966 47.8004 19.9966C47.8004 22.0454 47.8004 24.0957 47.8004 26.1475C47.0624 26.1475 46.3244 26.1475 45.5863 26.1475C45.5863 25.9301 45.5863 25.7142 45.5863 25.4999C45.2051 26.0143 44.5665 26.2853 43.9372 26.3175H43.6754C43.1976 26.2945 42.7199 26.1475 42.3156 25.8857C41.6174 25.4355 41.158 24.6683 40.9973 23.8599C40.786 22.8171 40.9973 21.6549 41.6909 20.8235C42.0446 20.3963 42.5315 20.0702 43.069 19.9231ZM44.1531 21.8479C43.9923 21.88 43.8361 21.9397 43.6937 22.027C43.3032 22.2659 43.0735 22.7344 43.1241 23.1892C43.1608 23.6486 43.487 24.0666 43.9188 24.2274C44.4104 24.4203 45.0259 24.2779 45.3612 23.8645C45.7104 23.4602 45.7424 22.8263 45.4439 22.3899C45.1729 21.9674 44.64 21.756 44.1531 21.8479Z" fill="#AEBADF"/>
<path d="M52.095 19.8915C52.5543 19.7813 53.0459 19.8042 53.4869 19.9696C53.9049 20.1258 54.254 20.4428 54.4699 20.8332C54.718 21.288 54.796 21.8163 54.7915 22.3308C54.7915 23.6017 54.7915 24.8741 54.7915 26.1481C54.0411 26.1481 53.2909 26.1481 52.5406 26.1481C52.5406 25.0241 52.5406 23.9003 52.5406 22.7763C52.536 22.4961 52.4624 22.1883 52.2328 22.0092C51.9251 21.7795 51.4335 21.8255 51.1946 22.1378C51.0246 22.3583 50.9787 22.6431 50.9834 22.9141C50.9834 23.9921 50.9834 25.0701 50.9834 26.1481C50.233 26.1481 49.4828 26.1481 48.7324 26.1481C48.7324 24.0962 48.7324 22.0459 48.7324 19.9972C49.4828 19.9972 50.233 19.9972 50.9834 19.9972C50.9834 20.233 50.9834 20.4688 50.9834 20.7046C51.2268 20.3003 51.6356 20.0017 52.095 19.8915Z" fill="#AEBADF"/>
<path d="M57.2812 20.1109C58.1908 19.7251 59.2657 19.7204 60.1615 20.1431C60.1615 20.8229 60.1615 21.5043 60.1615 22.1873C59.7618 21.9208 59.275 21.7922 58.8018 21.8565C58.4481 21.907 58.1036 22.077 57.8968 22.371C57.5798 22.812 57.6075 23.4735 57.9795 23.8777C58.2092 24.1304 58.5491 24.2635 58.889 24.2912C59.3392 24.3324 59.794 24.1946 60.1615 23.9282C60.1615 24.6111 60.1615 25.2926 60.1615 25.9724C59.7297 26.1929 59.2473 26.3032 58.765 26.3169H58.5445C58.1448 26.2985 57.7406 26.2296 57.364 26.0826C56.8633 25.8897 56.4085 25.5682 56.0778 25.141C55.7792 24.7688 55.5817 24.3233 55.4851 23.8593C55.2831 22.9084 55.4438 21.8565 56.0456 21.071C56.3625 20.6484 56.7944 20.3176 57.2812 20.1109Z" fill="#AEBADF"/>
<path fill-rule="evenodd" clip-rule="evenodd" d="M61.8151 20.4924C62.5777 19.8999 63.6021 19.7069 64.5391 19.8906C65.2696 20.0238 65.9586 20.4327 66.3904 21.0391C66.9324 21.7786 67.0978 22.7387 67.0013 23.6391C65.5895 23.6391 64.1763 23.6391 62.7614 23.6391C62.7844 23.9147 62.9268 24.1765 63.1472 24.3419C63.4596 24.5761 63.8869 24.6175 64.2635 24.521C64.5208 24.4521 64.7321 24.273 64.8883 24.0663C65.5283 24.3112 66.1684 24.5578 66.8084 24.8058C66.5052 25.3203 66.0458 25.743 65.5038 25.991C65.0352 26.2069 64.5161 26.2988 64.0017 26.3171H63.7077C62.9268 26.2896 62.1366 26.0507 61.5533 25.5178C61.1674 25.1688 60.8872 24.7047 60.7356 24.2086C60.584 23.708 60.5427 23.175 60.6024 22.6606C60.6943 21.8108 61.1352 21.0069 61.8151 20.4924ZM63.1886 21.696C62.9543 21.8338 62.8027 22.0864 62.7752 22.3574C63.4673 22.3574 64.1594 22.3574 64.8515 22.3574C64.8239 22.0542 64.6356 21.7741 64.3646 21.6454C63.9971 21.4663 63.5377 21.48 63.1886 21.696Z" fill="#AEBADF"/>
<path d="M31.9702 16.9649C32.5031 16.8638 33.0818 17.1532 33.3207 17.6448C33.5504 18.0812 33.4631 18.6507 33.1324 19.009C32.7787 19.4133 32.154 19.5511 31.667 19.3214C31.1985 19.1147 30.8815 18.6002 30.932 18.0857C30.9734 17.5345 31.4282 17.0521 31.9702 16.9649Z" fill="#AEBADF"/>
<path d="M31.0654 19.9985C31.8157 19.9985 32.5645 19.9985 33.3117 19.9985C33.3148 22.0473 33.3148 24.0975 33.3117 26.1494C32.5645 26.1494 31.8157 26.1494 31.0654 26.1494C31.0654 24.0975 31.0654 22.0473 31.0654 19.9985Z" fill="#AEBADF"/>
</g>
</g>
<defs>
<clipPath id="clip0_116_72">
<rect width="71.5" height="26" fill="white" transform="translate(0.0546875 0.317383)"/>
</clipPath>
</defs>
</svg>
